<svg width="80" height="80" viewBox="0 0 80 80" fill="none" xmlns="http://www.w3.org/2000/svg">
<path d="M35.9 70.4849C34.7058 70.4849 33.7378 69.517 33.7378 68.3228V65.7287H29.3439V68.3228C29.3439 69.517 28.3759 70.4849 27.1817 70.4849C25.9875 70.4849 25.0195 69.517 25.0195 68.3228V63.5665C25.0195 62.3723 25.9875 61.4043 27.1817 61.4043H35.8999C37.0941 61.4043 38.0621 62.3723 38.0621 63.5665V68.3228C38.0622 69.517 37.0942 70.4849 35.9 70.4849Z" fill="#C4A15F"/>
<path d="M49.0003 68.1066H44.2989C43.1047 68.1066 42.1367 67.1386 42.1367 65.9444C42.1367 64.7502 43.1047 63.7822 44.2989 63.7822H49.0003C50.1945 63.7822 51.1625 64.7502 51.1625 65.9444C51.1625 67.1386 50.1944 68.1066 49.0003 68.1066Z" fill="#C4A15F"/>
<path d="M18.7835 68.1066H14.0821C12.8879 68.1066 11.9199 67.1386 11.9199 65.9444C11.9199 64.7502 12.8879 63.7822 14.0821 63.7822H18.7835C19.9777 63.7822 20.9457 64.7502 20.9457 65.9444C20.9457 67.1386 19.9776 68.1066 18.7835 68.1066Z" fill="#C4A15F"/>
<path d="M39.2707 44.5914V18.1109H48.9993V10.8115H14.082V55.3469H48.9993V44.5914H39.2707Z" fill="#E5D4A7"/>
<path d="M74.8376 15.9493H60.0813V5.13532C60.0811 2.30375 57.7774 0 54.946 0H8.13743C5.30602 0 3.00195 2.30375 3.00195 5.13532V68.3783C3.00195 74.7866 8.21556 80 14.6239 80H48.4592C54.8675 80 60.081 74.7864 60.081 68.3783V56.2126C60.081 55.0184 59.113 54.0504 57.9188 54.0504C56.7246 54.0504 55.7566 55.0184 55.7566 56.2126V68.3783C55.7566 72.4022 52.4828 75.6756 48.4592 75.6756H14.6239C10.5999 75.6756 7.32618 72.4019 7.32618 68.3783V5.13532C7.32618 4.68813 7.69009 4.32438 8.13743 4.32438H54.9457C55.3928 4.32438 55.7567 4.68829 55.7567 5.13532V15.9493H51.1622V10.8119C51.1622 9.61768 50.1942 8.6497 49 8.6497H14.0829C12.8887 8.6497 11.9207 9.61768 11.9207 10.8119V55.3473C11.9207 56.5415 12.8887 57.5095 14.0829 57.5095H49.0003C50.1945 57.5095 51.1625 56.5415 51.1625 55.3473V46.7538H74.8376C76.0318 46.7538 76.9998 45.7859 76.9998 44.5916V18.1113C76.9996 16.9172 76.0315 15.9493 74.8376 15.9493ZM46.8381 53.1849H16.2451V12.9741H46.8381V15.9493H39.2716C38.0773 15.9493 37.1094 16.9172 37.1094 18.1114V44.5916C37.1094 45.7859 38.0773 46.7538 39.2716 46.7538H46.8381V53.1849ZM72.6754 42.4296H49.0024H49.0002H41.4336V23.3747L55.69 34.9724C56.0874 35.2957 56.5708 35.4574 57.0546 35.4574C57.5382 35.4574 58.0218 35.2957 58.4191 34.9724L67.6065 27.4983C68.5327 26.7449 68.6729 25.3829 67.9193 24.4566C67.1658 23.5304 65.8038 23.3902 64.8775 24.1438L57.0547 30.5079L44.4741 20.2735H49.0005H49.0027H72.6757L72.6754 42.4296Z" fill="#C4A15F"/>
</svg>
