<svg width="325" height="240" viewBox="0 0 325 240" fill="none" xmlns="http://www.w3.org/2000/svg">
<path d="M233.271 9.80066C259.619 27.0402 274.075 36.4991 267.352 86.7018L253.947 141.897L239.913 189.314C239.913 189.314 222.815 266.068 148.792 230.673C74.7681 195.279 103.035 210.792 58.1884 182.508C13.3414 154.225 37.4791 86.7018 37.4791 86.7018C37.4791 86.7018 58.1884 18.6424 131.189 5.03059C204.189 -8.58125 233.182 9.74239 233.182 9.74239L233.271 9.80066Z" fill="#E5D4A7"/>
<path d="M84.3959 190.82L84.3959 200.147L100.414 202.045L99.7003 157.482L98.7216 160.782L98.9131 157.057L98.9578 152.626L99.6367 153.541L99.6071 151.68C99.1479 150.915 99.3047 137.332 99.3047 137.332C99.6818 135.545 110.586 117.408 105.106 115.416C103.216 114.728 99.7384 115.374 99.3623 117.163L85.3336 146.508C85.3199 146.569 85.3143 146.624 85.3066 146.685C85.3066 146.685 80.7258 154.708 79.4347 161.672C78.0955 168.896 80.0448 175.073 80.0448 175.073L84.3959 190.82Z" fill="#EDBDA9"/>
<path d="M191.715 169.062C191.715 170.022 190.931 170.807 189.971 170.807H100.544C99.5842 170.807 98.7988 170.022 98.7988 169.062V55.0585C98.7988 54.0987 99.5845 53.3145 100.544 53.3145H189.971C190.931 53.3145 191.715 54.0987 191.715 55.0585V169.062Z" fill="#1A9090"/>
<path d="M187.698 58.0771H102.928V165.437H187.698V58.0771Z" fill="white"/>
<path d="M170.551 58.0771H102.58V153.371H187.937V75.4639L170.551 58.0771Z" fill="#E6E7E8"/>
<path d="M170.551 58.0771H102.58V166.043H187.937V75.4639H170.551V58.0771Z" fill="white"/>
<path d="M156.109 86.3545H137.457V88.7371H156.109V86.3545Z" fill="#B0B0B0"/>
<path d="M178.672 96.1055H137.457V98.4851H178.672V96.1055Z" fill="#B0B0B0"/>
<path d="M178.672 101.521H137.457V103.905H178.672V101.521Z" fill="#B0B0B0"/>
<path d="M178.672 106.936H137.457V109.319H178.672V106.936Z" fill="#B0B0B0"/>
<path d="M178.672 112.353H137.457V114.736H178.672V112.353Z" fill="#B0B0B0"/>
<path d="M178.672 117.778H137.457V120.16H178.672V117.778Z" fill="#B0B0B0"/>
<path d="M178.672 123.194H137.457V125.577H178.672V123.194Z" fill="#B0B0B0"/>
<path d="M178.672 128.609H137.457V130.991H178.672V128.609Z" fill="#B0B0B0"/>
<path d="M178.672 134.027H137.457V136.41H178.672V134.027Z" fill="#B0B0B0"/>
<path d="M178.672 139.414H137.457V141.798H178.672V139.414Z" fill="#B0B0B0"/>
<path d="M178.672 144.833H137.457V147.214H178.672V144.833Z" fill="#B0B0B0"/>
<path d="M178.672 150.247H137.457V152.633H178.672V150.247Z" fill="#B0B0B0"/>
<path d="M170.552 58.0771H102.58V63.082H170.552V58.0771Z" fill="#FFD11D"/>
<path d="M137.22 65.7284H135.094V65.2012H137.333L137.22 65.7284Z" fill="#EBE5EE"/>
<path d="M153.048 65.7284H155.085V65.2012H152.936L153.048 65.7284Z" fill="#EBE5EE"/>
<path d="M127.578 50.6436V66.2637H135.098C135.098 66.2637 135.095 64.869 135.098 64.8631C135.098 64.8631 155.076 64.8628 155.076 64.8724V66.2637H162.731V50.6436H127.578Z" fill="#F76031"/>
<path d="M141.299 41.5167L136.223 65.3415H137.302L142.512 40.8826L142.103 40.7162C139.022 39.4654 137.029 36.51 137.029 33.1894C137.029 28.7092 140.674 25.0643 145.156 25.0643C149.637 25.0643 153.28 28.7092 153.28 33.1894C153.28 36.5359 151.267 39.4983 148.152 40.7362L147.739 40.9015L152.967 65.3415H154.045L148.953 41.5419C152.238 40.0522 154.336 36.8206 154.336 33.1894C154.336 28.1272 150.22 24.0098 145.156 24.0098C140.094 24.0098 135.975 28.1268 135.975 33.1894C135.974 36.7932 138.05 40.0156 141.299 41.5167Z" fill="#EBE5EE"/>
<path d="M127.958 133.189H126.807V134.34H127.958V133.189Z" fill="#B0B0B0"/>
<path d="M127.958 135.559V136.777H126.807V135.559H127.958ZM127.958 137.995V139.214H126.807V137.995H127.958ZM127.958 140.432V141.651H126.807V140.432H127.958ZM127.958 142.87V144.087H126.807V142.87H127.958ZM127.958 145.306V146.525H126.807V145.306H127.958ZM127.958 147.743V148.962H126.807V147.743H127.958ZM127.958 150.18V151.398H126.807V150.18H127.958Z" fill="#B0B0B0"/>
<path d="M127.958 152.616H126.807V153.767H127.958V152.616Z" fill="#B0B0B0"/>
<path d="M125.589 152.616V153.767H124.371V152.616H125.589ZM123.153 152.616V153.767H121.934V152.616H123.153ZM120.715 152.616V153.767H119.497V152.616H120.715ZM118.28 152.616V153.767H117.061V152.616H118.28ZM115.843 152.616V153.767H114.624V152.616H115.843ZM113.405 152.616V153.767H112.187V152.616H113.405ZM110.968 152.616V153.767H109.75V152.616H110.968Z" fill="#B0B0B0"/>
<path d="M108.532 152.616H107.381V153.767H108.532V152.616Z" fill="#B0B0B0"/>
<path d="M108.532 135.559V136.777H107.381V135.559H108.532ZM108.532 137.995V139.214H107.381V137.995H108.532ZM108.532 140.432V141.651H107.381V140.432H108.532ZM108.532 142.87V144.088H107.381V142.87H108.532ZM108.532 145.306V146.525H107.381V145.306H108.532ZM108.532 147.743V148.962H107.381V147.743H108.532ZM108.532 150.18V151.398H107.381V150.18H108.532Z" fill="#B0B0B0"/>
<path d="M108.532 133.189H107.381V134.34H108.532V133.189Z" fill="#B0B0B0"/>
<path d="M125.589 133.189V134.34H124.371V133.189H125.589ZM123.153 133.189V134.34H121.934V133.189H123.153ZM120.715 133.189V134.34H119.497V133.189H120.715ZM118.279 133.189V134.34H117.061V133.189H118.279ZM115.843 133.189V134.34H114.624V133.189H115.843ZM113.405 133.189V134.34H112.187V133.189H113.405ZM110.968 133.189V134.34H109.75V133.189H110.968Z" fill="#B0B0B0"/>
<path d="M127.958 108.814H126.807V109.965H127.958V108.814Z" fill="#B0B0B0"/>
<path d="M127.958 111.183V112.402H126.807V111.183H127.958ZM127.958 113.62V114.839H126.807V113.62H127.958ZM127.958 116.056V117.275H126.807V116.056H127.958ZM127.958 118.494V119.713H126.807V118.494H127.958ZM127.958 120.931V122.15H126.807V120.931H127.958ZM127.958 123.368V124.587H126.807V123.368H127.958ZM127.958 125.805V127.024H126.807V125.805H127.958Z" fill="#B0B0B0"/>
<path d="M127.958 128.242H126.807V129.393H127.958V128.242Z" fill="#B0B0B0"/>
<path d="M125.589 128.242V129.393H124.371V128.242H125.589ZM123.153 128.242V129.393H121.934V128.242H123.153ZM120.715 128.242V129.393H119.497V128.242H120.715ZM118.28 128.242V129.393H117.061V128.242H118.28ZM115.843 128.242V129.393H114.624V128.242H115.843ZM113.405 128.242V129.393H112.187V128.242H113.405ZM110.968 128.242V129.393H109.75V128.242H110.968Z" fill="#B0B0B0"/>
<path d="M108.532 128.242H107.381V129.393H108.532V128.242Z" fill="#B0B0B0"/>
<path d="M108.532 111.183V112.402H107.381V111.183H108.532ZM108.532 113.62V114.839H107.381V113.62H108.532ZM108.532 116.056V117.275H107.381V116.056H108.532ZM108.532 118.494V119.713H107.381V118.494H108.532ZM108.532 120.931V122.15H107.381V120.931H108.532ZM108.532 123.368V124.587H107.381V123.368H108.532ZM108.532 125.805V127.024H107.381V125.805H108.532Z" fill="#B0B0B0"/>
<path d="M108.532 108.814H107.381V109.965H108.532V108.814Z" fill="#B0B0B0"/>
<path d="M125.589 108.814V109.965H124.371V108.814H125.589ZM123.153 108.814V109.965H121.934V108.814H123.153ZM120.715 108.814V109.965H119.497V108.814H120.715ZM118.279 108.814V109.965H117.061V108.814H118.279ZM115.843 108.814V109.965H114.624V108.814H115.843ZM113.405 108.814V109.965H112.187V108.814H113.405ZM110.968 108.814V109.965H109.75V108.814H110.968Z" fill="#B0B0B0"/>
<path d="M127.958 84.4395H126.807V85.5908H127.958V84.4395Z" fill="#B0B0B0"/>
<path d="M127.958 86.8096V88.0286H126.807V86.8096H127.958ZM127.958 89.2454V90.4641H126.807V89.2454H127.958ZM127.958 91.6831V92.9011H126.807V91.6831H127.958ZM127.958 94.1194V95.3373H126.807V94.1194H127.958ZM127.958 96.5567V97.7754H126.807V96.5567H127.958ZM127.958 98.9941V100.213H126.807V98.9941H127.958ZM127.958 101.431V102.649H126.807V101.431H127.958Z" fill="#B0B0B0"/>
<path d="M127.958 103.866H126.807V105.018H127.958V103.866Z" fill="#B0B0B0"/>
<path d="M125.589 103.866V105.018H124.371V103.866H125.589ZM123.153 103.866V105.018H121.934V103.866H123.153ZM120.715 103.866V105.018H119.497V103.866H120.715ZM118.28 103.866V105.018H117.061V103.866H118.28ZM115.843 103.866V105.018H114.624V103.866H115.843ZM113.405 103.866V105.018H112.187V103.866H113.405ZM110.968 103.866V105.018H109.75V103.866H110.968Z" fill="#B0B0B0"/>
<path d="M108.532 103.866H107.381V105.018H108.532V103.866Z" fill="#B0B0B0"/>
<path d="M108.532 86.8096V88.0268H107.381V86.8096H108.532ZM108.532 89.2454V90.4641H107.381V89.2454H108.532ZM108.532 91.6831V92.9007H107.381V91.6831H108.532ZM108.532 94.1194V95.3373H107.381V94.1194H108.532ZM108.532 96.5567V97.7754H107.381V96.5567H108.532ZM108.532 98.9941V100.213H107.381V98.9941H108.532ZM108.532 101.43V102.647H107.381V101.43H108.532Z" fill="#B0B0B0"/>
<path d="M108.532 84.4395H107.381V85.5908H108.532V84.4395Z" fill="#B0B0B0"/>
<path d="M125.589 84.4395V85.5908H124.371V84.4395H125.589ZM123.153 84.4395V85.5908H121.934V84.4395H123.153ZM120.715 84.4395V85.5908H119.497V84.4395H120.715ZM118.279 84.4395V85.5908H117.061V84.4395H118.279ZM115.843 84.4395V85.5908H114.624V84.4395H115.843ZM113.405 84.4395V85.5908H112.187V84.4395H113.405ZM110.968 84.4395V85.5908H109.75V84.4395H110.968Z" fill="#B0B0B0"/>
<path d="M122.498 139.002H113.01V148.49H122.498V139.002Z" fill="#B0B0B0"/>
<path d="M122.498 114.305H113.01V123.794H122.498V114.305Z" fill="#B0B0B0"/>
<path d="M122.498 89.9814H113.01V99.4702H122.498V89.9814Z" fill="#B0B0B0"/>
<path d="M115.646 92.1002L114.412 93.334L119.409 98.33L131.127 86.611L129.894 85.3779L119.409 95.8631L115.646 92.1002Z" fill="#1A9090"/>
<path d="M115.646 116.681L114.412 117.914L119.409 122.91L131.127 111.191L129.894 109.958L119.409 120.444L115.646 116.681Z" fill="#1A9090"/>
<path d="M115.646 141.02L114.412 142.253L119.409 147.249L131.127 135.53L129.894 134.297L119.409 144.782L115.646 141.02Z" fill="#1A9090"/>
<path d="M86.9395 202.045L112.124 203.197C112.445 193.178 113.982 193.657 115.641 191.241C118.403 187.219 119.506 181.447 119.226 176.685C119.226 167.926 114.326 160.043 114.355 159.962L113.199 137.622C113.722 132.389 112.704 128.885 110.732 127.803C107.329 125.932 103.928 126.319 101.686 129.5L99.8228 156.836C99.8228 156.836 96.6715 164.299 98.8596 175.971L91.9961 191.138C90.0375 195.185 88.3641 198.805 86.9395 202.045Z" fill="#EDBDA9"/>
<path d="M125.718 221V204.348L76 194.822L97.2972 208.133L125.718 221Z" fill="#F1F2F2"/>
<path d="M117.372 211.678C118.469 211.852 119.505 211.111 119.68 210.012C119.855 208.913 119.108 207.883 118.013 207.708C116.919 207.531 115.879 208.276 115.705 209.372C115.529 210.469 116.276 211.5 117.372 211.678Z" fill="#1A9090"/>
<path opacity="0.3" d="M110.684 135.105C110.684 135.105 108.515 135.562 106.518 135.562C104.812 135.562 103.234 135.105 103.234 135.105V130.177C103.234 130.177 104.579 128.889 107.062 128.975C109.443 129.061 110.684 130.177 110.684 130.177V135.105Z" fill="white"/>
<path d="M215.749 139.807L223.263 146.906L212.226 157.446L184.396 127.357L184.852 126.694L183.589 125.828L182.306 124.95L181.933 124.694L180.771 123.439C180.591 122.637 177.034 119.515 177.034 119.515C175.648 118.567 170.989 139.903 163.209 136.684C158.113 134.576 173.048 109.996 177.388 108.529L184.978 109.668C185.025 109.7 188.292 110.621 188.336 110.656C188.336 110.656 195.252 113.46 200.532 117.271C206.013 121.226 208.64 126.57 208.64 126.57L215.749 139.807Z" fill="#EDBDA9"/>
<path d="M237.438 125.316C237.455 125.49 237.603 125.617 237.763 125.602L242.332 125.136C242.494 125.12 242.61 124.964 242.593 124.792L241.678 115.806C241.661 115.634 241.514 115.505 241.353 115.522L236.783 115.987C236.625 116.003 236.505 116.159 236.523 116.331L237.438 125.316Z" fill="#F76031"/>
<path d="M235.129 116.156L236.779 115.988L237.758 125.602L236.108 125.77C235.948 125.787 235.803 125.659 235.784 125.485L234.869 116.499C234.852 116.327 234.969 116.172 235.129 116.156Z" fill="white"/>
<path d="M162.994 123.499L166.638 123.128L214.57 118.249L222.48 117.443L234.982 116.171L235.961 125.785L223.459 127.058L215.549 127.863L167.618 132.743L163.973 133.115L148.102 134.73L147.123 125.114L162.994 123.499Z" fill="#FFD11D"/>
<path d="M163.353 127.015L166.997 126.644L214.928 121.764L222.839 120.959L235.34 119.686L235.603 122.266L223.101 123.539L215.191 124.345L167.26 129.225L163.616 129.596L147.745 131.212L147.482 128.631L163.353 127.015Z" fill="#1A9090"/>
<path d="M148.147 134.751L150.118 129.669L147.165 125.082L136.396 131.066L148.147 134.751Z" fill="white"/>
<path d="M140.888 128.568L141.299 132.602L136.396 131.066L140.888 128.568Z" fill="#1A9090"/>
<path d="M221.186 148.888L205.169 165.649C202.825 163.565 197.541 162.764 195.202 161.426C190.823 158.919 186.444 155.874 183.607 152.529C178.044 146.704 176.297 138.349 176.225 138.314L164.391 124.383C160.721 121.234 159.171 118.257 159.794 116.286C160.87 112.88 163.378 110.978 166.889 111.668L183.904 127.004C183.904 127.004 190.74 129.966 196.7 139.118L210.897 144.846C214.767 146.292 218.182 147.638 221.186 148.888Z" fill="#EDBDA9"/>
<path opacity="0.3" d="M164.411 120.927C164.411 120.927 166.145 119.852 167.473 118.584C168.607 117.501 169.367 116.194 169.367 116.194L166.236 112.916C166.236 112.916 164.524 112.915 162.926 114.548C161.398 116.118 161.281 117.649 161.281 117.649L164.411 120.927Z" fill="white"/>
<path d="M232.134 208.163L196.271 175.613L229.336 135.645L249.485 156.222L232.134 208.163Z" fill="#F1F2F2"/>
<path d="M228.961 213.901L203.012 184.762L239.251 139.707L249.483 156.221C249.483 156.221 238 195.5 236.616 198.816C235.232 202.131 228.961 213.901 228.961 213.901Z" fill="#1A9090"/>
<path d="M207.067 174.621C206.449 175.434 205.289 175.599 204.474 174.98C203.659 174.361 203.501 173.201 204.119 172.388C204.734 171.575 205.898 171.411 206.711 172.029C207.525 172.647 207.684 173.808 207.067 174.621Z" fill="#1A9090"/>
<path d="M262.429 85.6342L264.866 88.0777L262.879 90.0656L260.435 87.6278L258.003 90.0656L256.009 88.0777L258.447 85.6342L255.992 83.1793L257.98 81.1914L260.435 83.6463L262.879 81.2085L264.866 83.2021L262.429 85.6342Z" fill="#FFFEFD"/>
<path d="M293.586 92.8125L306.918 103.712L296.018 117.046L282.686 106.146L293.586 92.8125ZM305.599 103.845L293.718 94.1328L284.006 106.013L295.886 115.725L305.599 103.845ZM301.016 104.306L294.178 98.7157L288.588 105.553L295.426 111.142L301.016 104.306Z" fill="#FFFEFD"/>
<path d="M294.054 97.3888L287.275 105.677L295.563 112.455L302.342 104.167L294.054 97.3888Z" fill="#FFFEFD"/>
<path d="M309.564 70.445C304.448 70.445 300.293 66.2899 300.293 61.1823C300.293 56.0748 304.448 51.9111 309.564 51.9111C314.672 51.9111 318.827 56.0748 318.827 61.1823C318.827 66.2899 314.672 70.445 309.564 70.445ZM303.756 61.1823C303.756 64.3852 306.362 66.9825 309.565 66.9825C312.759 66.9825 315.365 64.3857 315.365 61.1823C315.365 57.9795 312.759 55.3737 309.565 55.3737C306.361 55.3737 303.756 57.9795 303.756 61.1823Z" fill="#FFAC33"/>
<path d="M278.205 77.1687C275.199 77.1687 272.758 74.7275 272.758 71.7263C272.758 68.7257 275.199 66.2793 278.205 66.2793C281.205 66.2793 283.647 68.7257 283.647 71.7263C283.647 74.7275 281.205 77.1687 278.205 77.1687ZM274.792 71.7263C274.792 73.6082 276.323 75.1341 278.205 75.1341C280.082 75.1341 281.613 73.6082 281.613 71.7263C281.613 69.8444 280.082 68.3133 278.205 68.3133C276.323 68.3139 274.792 69.8449 274.792 71.7263Z" fill="#FFAC33"/>
<path d="M313.561 84.8678L319.803 89.1777L324.113 82.9359L317.871 78.6259L313.561 84.8678Z" fill="#CBF4F4"/>
<path d="M287.058 55.6147C289.613 55.6147 291.684 53.5435 291.684 50.9885C291.684 48.4335 289.613 46.3623 287.058 46.3623C284.503 46.3623 282.432 48.4335 282.432 50.9885C282.432 53.5435 284.503 55.6147 287.058 55.6147Z" fill="#CBF4F4"/>
<path d="M22.1512 64.7999L17.4583 69.4933L22.1136 74.1565L18.3122 77.958L13.6569 73.2948L8.99366 77.9574L5.19336 74.156L9.85545 69.4933L5.19336 64.8381L8.99366 61.0366L13.6569 65.6919L18.3497 60.999L22.1512 64.7999ZM8.99423 62.3017L6.45956 64.8369L11.1217 69.4922L6.45956 74.1554L8.99423 76.6912L13.6575 72.028L18.3127 76.6912L20.8485 74.1554L16.1933 69.4922L20.8861 64.7999L18.3503 62.2641L13.6575 66.9569L8.99423 62.3017Z" fill="#FFBE55"/>
<path d="M87.9337 92.6338L75.217 103.03L64.8203 90.3122L77.537 79.916L87.9337 92.6338ZM75.3429 101.771L86.6749 92.5074L77.4111 81.176L66.0791 90.4398L75.3429 101.771ZM83.5627 92.1947L75.6562 98.6589L69.1919 90.7513L77.0984 84.2871L83.5627 92.1947ZM75.7821 97.3996L82.3044 92.0677L76.9725 85.5464L70.4501 90.8783L75.7821 97.3996Z" fill="#FFFEFD"/>
<path d="M26.3477 73.3434C26.3477 69.2805 29.653 65.9678 33.7164 65.9678C37.7862 65.9678 41.0921 69.2799 41.0921 73.3434C41.0921 77.4063 37.7867 80.7122 33.7164 80.7122C29.6536 80.7122 26.3477 77.4068 26.3477 73.3434ZM33.7164 68.7229C31.1755 68.7229 29.1022 70.7956 29.1022 73.344C29.1022 75.8917 31.1749 77.9582 33.7164 77.9582C36.2642 77.9582 38.3375 75.8923 38.3375 73.344C38.3375 70.7956 36.2642 68.7229 33.7164 68.7229Z" fill="#FF5331"/>
<path d="M0 113.698C0 110.836 2.32848 108.502 5.19067 108.502C8.05799 108.502 10.3865 110.836 10.3865 113.698C10.3865 116.56 8.05799 118.888 5.19067 118.888C2.32848 118.889 0 116.56 0 113.698ZM5.19067 110.443C3.40045 110.443 1.94059 111.903 1.94059 113.698C1.94059 115.493 3.40102 116.948 5.19067 116.948C6.98545 116.948 8.44588 115.493 8.44588 113.698C8.44588 111.903 6.98545 110.443 5.19067 110.443Z" fill="#38B2AC"/>
<path d="M18.2583 87.0493L12.3047 91.1602L16.4156 97.1138L22.3692 93.0029L18.2583 87.0493Z" fill="#FFBE55"/>
<path d="M51.0053 96.1239C52.2897 96.1239 53.331 95.0827 53.331 93.7983C53.331 92.5139 52.2897 91.4727 51.0053 91.4727C49.7209 91.4727 48.6797 92.5139 48.6797 93.7983C48.6797 95.0827 49.7209 96.1239 51.0053 96.1239Z" fill="#FFBE55"/>
<path d="M21.3233 115.831C23.1372 115.831 24.6076 114.361 24.6076 112.547C24.6076 110.733 23.1372 109.263 21.3233 109.263C19.5095 109.263 18.0391 110.733 18.0391 112.547C18.0391 114.361 19.5095 115.831 21.3233 115.831Z" fill="#FF5331"/>
<path d="M300.293 43.7289C302.039 43.7289 303.454 42.3133 303.454 40.5671C303.454 38.8209 302.039 37.4053 300.293 37.4053C298.546 37.4053 297.131 38.8209 297.131 40.5671C297.131 42.3133 298.546 43.7289 300.293 43.7289Z" fill="#FF5331"/>
<path d="M261.863 52.7261C263.53 52.7261 264.881 51.3746 264.881 49.7073C264.881 48.0401 263.53 46.6885 261.863 46.6885C260.195 46.6885 258.844 48.0401 258.844 49.7073C258.844 51.3746 260.195 52.7261 261.863 52.7261Z" fill="#56D8CF"/>
</svg>
