<svg width="325" height="240" viewBox="0 0 325 240" fill="none" xmlns="http://www.w3.org/2000/svg">
<path d="M233.271 9.80066C259.619 27.0402 274.075 36.4991 267.352 86.7018L253.947 141.897L239.913 189.314C239.913 189.314 222.815 266.068 148.792 230.673C74.7681 195.279 103.035 210.792 58.1884 182.508C13.3414 154.225 37.4791 86.7018 37.4791 86.7018C37.4791 86.7018 58.1884 18.6424 131.189 5.03059C204.189 -8.58125 233.182 9.74239 233.182 9.74239L233.271 9.80066Z" fill="#E5D4A7"/>
<path d="M205.612 161.91L212.207 161.91L212.207 132.231L195.718 132.231L195.718 79.467L159.443 79.467L159.443 56.3828L152.848 56.3828L152.848 79.467L116.573 79.467L116.573 132.231L100.084 132.231L100.084 161.91L106.679 161.91L106.679 138.826L133.061 138.826L133.061 161.91L139.657 161.91L139.657 132.231L123.168 132.231L123.168 86.0625L189.123 86.0625L189.123 132.231L172.634 132.231L172.634 161.91L179.23 161.91L179.23 138.826L205.612 138.826L205.612 161.91Z" fill="white"/>
<path d="M161.336 43.1914C165.754 43.1914 169.336 46.7731 169.336 51.1914L169.336 61.5733C169.336 65.9916 165.754 69.5733 161.336 69.5733L150.954 69.5733C146.536 69.5733 142.954 65.9916 142.954 61.5733L142.954 51.1914C142.954 46.7731 146.536 43.1914 150.954 43.1914L161.336 43.1914Z" fill="#C4A15F"/>
<path d="M181.122 148.719C185.541 148.719 189.122 152.301 189.122 156.719L189.122 167.101C189.122 171.519 185.541 175.101 181.122 175.101L170.74 175.101C166.322 175.101 162.74 171.519 162.74 167.101L162.74 156.719C162.74 152.301 166.322 148.719 170.74 148.719L181.122 148.719ZM214.1 148.719C218.518 148.719 222.1 152.301 222.1 156.719L222.1 167.101C222.1 171.519 218.518 175.101 214.1 175.101L203.718 175.101C199.299 175.101 195.718 171.519 195.718 167.101L195.718 156.719C195.718 152.301 199.299 148.719 203.718 148.719L214.1 148.719ZM197.611 95.9551C202.029 95.9551 205.611 99.5368 205.611 103.955L205.611 114.337C205.611 118.755 202.029 122.337 197.611 122.337L187.229 122.337C182.811 122.337 179.229 118.755 179.229 114.337L179.229 103.955C179.229 99.5368 182.811 95.9551 187.229 95.9551L197.611 95.9551ZM125.061 95.9551C129.479 95.9551 133.061 99.5368 133.061 103.955L133.061 114.337C133.061 118.755 129.479 122.337 125.061 122.337L114.679 122.337C110.26 122.337 106.679 118.755 106.679 114.337L106.679 103.955C106.679 99.5368 110.26 95.9551 114.679 95.9551L125.061 95.9551ZM108.572 148.719C112.99 148.719 116.572 152.301 116.572 156.719L116.572 167.101C116.572 171.519 112.99 175.101 108.572 175.101L98.1901 175.101C93.7718 175.101 90.1901 171.519 90.1901 167.101L90.1901 156.719C90.1901 152.301 93.7718 148.719 98.1901 148.719L108.572 148.719ZM141.549 148.719C145.968 148.719 149.549 152.301 149.549 156.719L149.549 167.101C149.549 171.519 145.968 175.101 141.549 175.101L131.167 175.101C126.749 175.101 123.167 171.519 123.167 167.101L123.167 156.719C123.167 152.301 126.749 148.719 131.167 148.719L141.549 148.719Z" fill="#1A9090"/>
<path d="M202.3 205.647C202.3 205.647 201.981 201.915 199.53 199.866C198.16 198.706 196.849 198.555 195.919 198.644V205.661H194.24V197.975C193.739 196.886 192.736 195.204 191.143 194.573C189.557 193.934 187.934 194.092 186.938 194.284V202.204H185.266V193.313C184.556 192.458 183.279 191.438 181.04 191.305C179.832 191.232 178.754 191.72 177.903 192.255L177.738 199.866H176.056L176.107 186.049C181.531 184.349 185.496 179.344 185.496 173.354C185.493 165.977 179.513 160 172.139 160C164.762 160 158.785 165.977 158.785 173.357C158.785 179.131 162.462 184.006 167.591 185.87V209.32C167.591 209.32 163.272 200.027 159.602 198.802C155.94 197.58 153.66 199.78 153.66 199.78C153.66 199.78 157.821 207.49 160.873 216.038C162.833 221.538 163.42 227.913 165.15 231.071C169.547 239.141 175.164 239.979 181.94 239.979C188.703 239.979 197.903 240.607 200.347 234.981C202.795 229.361 202.3 205.647 202.3 205.647ZM164.532 173.35C164.532 169.152 167.937 165.743 172.139 165.743C176.338 165.743 179.746 169.152 179.746 173.35C179.746 176.086 178.291 178.459 176.132 179.801L176.149 174.881C176.149 174.881 175.164 169.76 171.992 169.76C168.809 169.76 167.594 174.154 167.594 174.154V179.416C165.747 178.033 164.532 175.843 164.532 173.35Z" fill="#EDBDA9"/>
<path d="M262.429 85.6342L264.866 88.0777L262.879 90.0656L260.435 87.6278L258.003 90.0656L256.009 88.0777L258.447 85.6342L255.992 83.1793L257.98 81.1914L260.435 83.6463L262.879 81.2085L264.866 83.2021L262.429 85.6342Z" fill="#FFFEFD"/>
<path d="M293.586 92.8125L306.918 103.712L296.018 117.046L282.686 106.146L293.586 92.8125ZM305.599 103.845L293.718 94.1328L284.006 106.013L295.886 115.725L305.599 103.845ZM301.016 104.306L294.178 98.7157L288.588 105.553L295.426 111.142L301.016 104.306Z" fill="#FFFEFD"/>
<path d="M294.054 97.3886L287.275 105.677L295.564 112.455L302.342 104.167L294.054 97.3886Z" fill="#FFFEFD"/>
<path d="M309.564 70.445C304.448 70.445 300.293 66.2899 300.293 61.1823C300.293 56.0748 304.448 51.9111 309.564 51.9111C314.672 51.9111 318.827 56.0748 318.827 61.1823C318.827 66.2899 314.672 70.445 309.564 70.445ZM303.756 61.1823C303.756 64.3852 306.362 66.9825 309.565 66.9825C312.759 66.9825 315.365 64.3857 315.365 61.1823C315.365 57.9795 312.759 55.3737 309.565 55.3737C306.361 55.3737 303.756 57.9795 303.756 61.1823Z" fill="#FFAC33"/>
<path d="M278.205 77.1687C275.199 77.1687 272.758 74.7275 272.758 71.7263C272.758 68.7257 275.199 66.2793 278.205 66.2793C281.205 66.2793 283.647 68.7257 283.647 71.7263C283.647 74.7275 281.205 77.1687 278.205 77.1687ZM274.792 71.7263C274.792 73.6082 276.323 75.1341 278.205 75.1341C280.082 75.1341 281.613 73.6082 281.613 71.7263C281.613 69.8444 280.082 68.3133 278.205 68.3133C276.323 68.3139 274.792 69.8449 274.792 71.7263Z" fill="#FFAC33"/>
<path d="M313.561 84.8678L319.803 89.1777L324.113 82.9359L317.871 78.6259L313.561 84.8678Z" fill="#CBF4F4"/>
<path d="M287.058 55.6147C289.613 55.6147 291.684 53.5435 291.684 50.9885C291.684 48.4335 289.613 46.3623 287.058 46.3623C284.503 46.3623 282.432 48.4335 282.432 50.9885C282.432 53.5435 284.503 55.6147 287.058 55.6147Z" fill="#CBF4F4"/>
<path d="M22.1512 64.7999L17.4583 69.4933L22.1136 74.1565L18.3122 77.958L13.6569 73.2948L8.99366 77.9574L5.19336 74.156L9.85545 69.4933L5.19336 64.8381L8.99366 61.0366L13.6569 65.6919L18.3497 60.999L22.1512 64.7999ZM8.99423 62.3017L6.45956 64.8369L11.1217 69.4922L6.45956 74.1554L8.99423 76.6912L13.6575 72.028L18.3127 76.6912L20.8485 74.1554L16.1933 69.4922L20.8861 64.7999L18.3503 62.2641L13.6575 66.9569L8.99423 62.3017Z" fill="#FFBE55"/>
<path d="M87.9337 92.6338L75.217 103.03L64.8203 90.3122L77.537 79.916L87.9337 92.6338ZM75.3429 101.771L86.6749 92.5074L77.4111 81.176L66.0791 90.4398L75.3429 101.771ZM83.5627 92.1947L75.6562 98.6589L69.1919 90.7513L77.0984 84.2871L83.5627 92.1947ZM75.7821 97.3996L82.3044 92.0677L76.9725 85.5464L70.4501 90.8783L75.7821 97.3996Z" fill="#FFFEFD"/>
<path d="M26.3477 73.3434C26.3477 69.2805 29.653 65.9678 33.7164 65.9678C37.7862 65.9678 41.0921 69.2799 41.0921 73.3434C41.0921 77.4063 37.7867 80.7122 33.7164 80.7122C29.6536 80.7122 26.3477 77.4068 26.3477 73.3434ZM33.7164 68.7229C31.1755 68.7229 29.1022 70.7956 29.1022 73.344C29.1022 75.8917 31.1749 77.9582 33.7164 77.9582C36.2642 77.9582 38.3375 75.8923 38.3375 73.344C38.3375 70.7956 36.2642 68.7229 33.7164 68.7229Z" fill="#FF5331"/>
<path d="M0 113.698C0 110.836 2.32848 108.502 5.19067 108.502C8.05799 108.502 10.3865 110.836 10.3865 113.698C10.3865 116.56 8.05799 118.888 5.19067 118.888C2.32848 118.889 0 116.56 0 113.698ZM5.19067 110.443C3.40045 110.443 1.94059 111.903 1.94059 113.698C1.94059 115.493 3.40102 116.948 5.19067 116.948C6.98545 116.948 8.44588 115.493 8.44588 113.698C8.44588 111.903 6.98545 110.443 5.19067 110.443Z" fill="#38B2AC"/>
<path d="M18.2583 87.0493L12.3047 91.1602L16.4156 97.1138L22.3692 93.0029L18.2583 87.0493Z" fill="#FFBE55"/>
<path d="M51.0053 96.1239C52.2897 96.1239 53.331 95.0827 53.331 93.7983C53.331 92.5139 52.2897 91.4727 51.0053 91.4727C49.7209 91.4727 48.6797 92.5139 48.6797 93.7983C48.6797 95.0827 49.7209 96.1239 51.0053 96.1239Z" fill="#FFBE55"/>
<path d="M21.3233 115.831C23.1372 115.831 24.6076 114.361 24.6076 112.547C24.6076 110.733 23.1372 109.263 21.3233 109.263C19.5095 109.263 18.0391 110.733 18.0391 112.547C18.0391 114.361 19.5095 115.831 21.3233 115.831Z" fill="#FF5331"/>
<path d="M300.293 43.7289C302.039 43.7289 303.454 42.3133 303.454 40.5671C303.454 38.8209 302.039 37.4053 300.293 37.4053C298.546 37.4053 297.131 38.8209 297.131 40.5671C297.131 42.3133 298.546 43.7289 300.293 43.7289Z" fill="#FF5331"/>
<path d="M261.863 52.7261C263.53 52.7261 264.881 51.3746 264.881 49.7073C264.881 48.0401 263.53 46.6885 261.863 46.6885C260.195 46.6885 258.844 48.0401 258.844 49.7073C258.844 51.3746 260.195 52.7261 261.863 52.7261Z" fill="#56D8CF"/>
</svg>
