<svg width="325" height="260" viewBox="0 0 325 260" fill="none" xmlns="http://www.w3.org/2000/svg">
<path d="M233.271 17.3534C259.619 34.593 274.075 44.0519 267.352 94.2545L253.947 149.449L239.913 196.867C239.913 196.867 222.815 273.621 148.792 238.226C74.7681 202.832 103.035 218.344 58.1884 190.061C13.3414 161.778 37.4791 94.2545 37.4791 94.2545C37.4791 94.2545 58.1884 26.1952 131.189 12.5833C204.189 -1.02852 233.182 17.2951 233.182 17.2951L233.271 17.3534Z" fill="#E5D4A7"/>
<path d="M38.6462 131.55C38.2395 96.3239 52.1244 61.0576 79.9434 35.2876C107.763 9.51763 143.987 -1.6341 179.08 1.46201L180.018 0.592524C177.575 0.362251 175.118 0.191749 172.646 0.0973537C137.949 -1.22908 104.811 11.0358 79.3378 34.6321C53.8641 58.2296 39.1041 90.3345 37.7773 125.033C37.6823 127.504 37.665 129.966 37.7074 132.42L38.6462 131.55Z" fill="white"/>
<path d="M279.126 64.8133L279.82 64.1692C275.107 56.1759 269.506 48.6282 263.047 41.658C253.863 31.7425 243.384 23.4589 231.97 16.9502L231.244 17.623C242.563 24.0158 253.097 32.2302 262.392 42.2645C268.905 49.2935 274.474 56.8638 279.126 64.8133Z" fill="white"/>
<path d="M295.726 113.916C300.679 153.778 287.066 195.391 255.415 224.714C203.19 273.091 121.344 269.963 72.9667 217.736C63.6708 207.702 56.2848 196.571 50.7759 184.797L50.0488 185.47C55.6678 197.348 63.1264 208.427 72.3111 218.343C95.9087 243.818 128.013 258.577 162.711 259.903C197.409 261.231 230.548 248.967 256.021 225.368C281.495 201.772 296.254 169.667 297.581 134.968C297.864 127.591 297.525 120.285 296.6 113.106L295.726 113.916Z" fill="white"/>
<path d="M73.8423 78.5624C77.7879 71.3662 82.6211 64.5132 88.3661 58.1694C127.163 15.3296 193.01 11.2382 236.793 48.3138L237.368 47.6794C216.413 29.9125 189.919 20.9054 162.347 22.2711C133.571 23.6961 107.072 36.2413 87.7328 57.5969C81.8803 64.0589 76.9018 71.0967 72.834 78.5628H73.8423V78.5624Z" fill="white"/>
<path d="M60.901 123.832H59.989C59.7783 127.638 59.7594 131.475 59.9508 135.335C61.3164 162.906 72.8957 188.383 92.6463 207.479L93.2205 206.844C70.1086 184.469 59.1946 153.913 60.901 123.832Z" fill="white"/>
<path d="M262.543 78.5626C261.458 76.5656 260.307 74.6019 259.095 72.6738L258.467 73.3663C259.532 75.0742 260.54 76.8083 261.501 78.5629H262.543V78.5626Z" fill="white"/>
<path d="M275.362 123.832H274.449C276.049 151.482 267.013 179.73 246.995 201.832C214.2 238.046 162.078 246.561 120.292 225.939L119.664 226.632C136.014 234.789 154.265 238.659 173.015 237.731C201.791 236.306 228.288 223.761 247.63 202.406C266.968 181.052 276.835 153.442 275.411 124.667C275.397 124.388 275.378 124.111 275.362 123.832Z" fill="white"/>
<path d="M211.346 237.199C212.92 236.541 214.498 235.841 216.04 235.115L215.675 234.343C214.147 235.064 212.579 235.76 211.018 236.411L211.346 237.199Z" fill="white"/>
<path d="M74.0437 198.866L73.3594 199.376C74.3775 200.743 75.4397 202.104 76.5146 203.419L77.176 202.879C76.1089 201.573 75.0559 200.222 74.0437 198.866Z" fill="white"/>
<path d="M68.3293 190.448L67.6016 190.896C68.4933 192.342 69.429 193.792 70.3854 195.198L71.0919 194.719C70.1437 193.321 69.2141 191.884 68.3293 190.448Z" fill="white"/>
<path d="M55.9448 162.591L55.125 162.831C55.6051 164.47 56.1274 166.115 56.6778 167.726L57.4849 167.45C56.9391 165.851 56.4211 164.216 55.9448 162.591Z" fill="white"/>
<path d="M87.5944 214.044L87.0098 214.667C88.25 215.83 89.5359 216.984 90.8294 218.097L91.3856 217.451C90.1013 216.346 88.8252 215.2 87.5944 214.044Z" fill="white"/>
<path d="M63.3825 181.55L62.6172 181.931C63.3789 183.455 64.1853 184.985 65.0133 186.475L65.7597 186.059C64.9372 184.58 64.137 183.063 63.3825 181.55Z" fill="white"/>
<path d="M59.2403 172.236L58.4453 172.548C59.0682 174.136 59.7342 175.729 60.4263 177.285L61.2063 176.939C60.521 175.393 59.8586 173.812 59.2403 172.236Z" fill="white"/>
<path d="M201.703 240.73C203.329 240.215 204.963 239.658 206.564 239.072L206.27 238.271C204.682 238.853 203.059 239.407 201.445 239.915L201.703 240.73Z" fill="white"/>
<path d="M181.562 244.327L181.674 245.174C183.364 244.952 185.072 244.69 186.75 244.394L186.602 243.553C184.935 243.847 183.24 244.108 181.562 244.327Z" fill="white"/>
<path d="M191.602 242.559L191.784 243.393C193.45 243.024 195.128 242.613 196.773 242.172L196.552 241.348C194.919 241.784 193.254 242.193 191.602 242.559Z" fill="white"/>
<path d="M95.3241 220.686L94.7969 221.358C96.1377 222.411 97.52 223.448 98.9042 224.44L99.4017 223.746C98.0272 222.762 96.656 221.731 95.3241 220.686Z" fill="white"/>
<path d="M103.613 226.626L103.146 227.341C104.575 228.273 106.043 229.185 107.511 230.053L107.945 229.318C106.489 228.456 105.031 227.551 103.613 226.626Z" fill="white"/>
<path d="M124.795 237.507C123.723 237.089 122.654 236.66 121.601 236.215L121.268 237C122.47 237.512 123.696 237.999 124.921 238.472L124.795 237.507Z" fill="white"/>
<path d="M112.392 231.816L111.99 232.57C113.496 233.372 115.04 234.152 116.579 234.886L116.947 234.117C115.419 233.387 113.887 232.613 112.392 231.816Z" fill="white"/>
<path d="M80.483 206.752L79.8457 207.321C80.9804 208.591 82.1586 209.853 83.3478 211.073L83.9589 210.476C82.7782 209.266 81.6088 208.012 80.483 206.752Z" fill="white"/>
<path d="M77.459 56.9156L76.7992 56.373C75.7157 57.693 74.6486 59.0524 73.6289 60.4131L74.3132 60.9253C75.3241 59.5753 76.3837 58.226 77.459 56.9156Z" fill="white"/>
<path d="M91.152 41.7275C89.8595 42.8325 88.5726 43.9829 87.3262 45.1473L87.9099 45.7715C89.1471 44.6159 90.4239 43.4737 91.7063 42.3772L91.152 41.7275Z" fill="white"/>
<path d="M83.6538 48.7334C82.4633 49.9488 81.2815 51.2076 80.1426 52.4779L80.7779 53.0488C81.909 51.788 83.0812 50.5374 84.263 49.3318L83.6538 48.7334Z" fill="white"/>
<path d="M98.5033 35.9473C97.3634 36.7727 96.2284 37.6186 95.123 38.4819L95.6489 39.1548C96.6246 38.3927 97.624 37.6457 98.6287 36.9125L98.5033 35.9473Z" fill="white"/>
<path d="M146.333 16.5862L146.184 15.7451C144.67 16.0133 143.145 16.3193 141.637 16.6486L141.747 17.4981C143.268 17.1646 144.807 16.8566 146.333 16.5862Z" fill="white"/>
<path d="M171.453 245.212L171.563 246.063C173.227 245.987 174.911 245.878 176.569 245.734L176.494 244.882C174.825 245.028 173.128 245.139 171.453 245.212Z" fill="white"/>
<path d="M70.6391 64.5908C69.6771 65.9983 68.7335 67.4465 67.834 68.8954L68.5597 69.3462C69.4524 67.9081 70.3889 66.4696 71.3436 65.0723L70.6391 64.5908Z" fill="white"/>
<path d="M65.2204 73.3203C64.3872 74.8058 63.5742 76.3318 62.8047 77.8578L63.5674 78.2426C64.331 76.7284 65.1375 75.2138 65.9645 73.7387L65.2204 73.3203Z" fill="white"/>
<path d="M53.8525 101.915C53.438 103.571 53.0558 105.261 52.7148 106.937L53.5526 107.106C53.8904 105.443 54.2696 103.767 54.6815 102.123L53.8525 101.915Z" fill="white"/>
<path d="M60.5914 82.498C59.8911 84.0544 59.2163 85.6477 58.5859 87.2332L59.3787 87.5484C60.0058 85.975 60.6751 84.3935 61.3708 82.8488L60.5914 82.498Z" fill="white"/>
<path d="M56.7899 92.0537C56.2303 93.6666 55.6983 95.3144 55.2109 96.9505L56.0298 97.1945C56.5135 95.5702 57.041 93.9348 57.597 92.3333L56.7899 92.0537Z" fill="white"/>
<path d="M277.81 163.287C278.301 161.649 278.76 159.98 279.176 158.326L278.347 158.118C277.936 159.759 277.478 161.416 276.992 163.044L277.81 163.287Z" fill="white"/>
<path d="M271.9 83.2923L272.681 82.9471C271.991 81.3904 271.256 79.8268 270.495 78.2988L269.73 78.6797C270.486 80.1962 271.215 81.7487 271.9 83.2923Z" fill="white"/>
<path d="M255.961 57.3354L256.623 56.7958C255.546 55.4749 254.427 54.1612 253.295 52.8906L252.658 53.4593C253.781 54.7198 254.892 56.024 255.961 57.3354Z" fill="white"/>
<path d="M220.638 232.823C222.14 232.032 223.648 231.194 225.115 230.336L224.684 229.599C223.227 230.451 221.732 231.283 220.24 232.067L220.638 232.823Z" fill="white"/>
<path d="M262.036 65.5015L262.743 65.0226C261.789 63.6136 260.791 62.2078 259.777 60.8418L259.09 61.3517C260.097 62.7075 261.088 64.1032 262.036 65.5015Z" fill="white"/>
<path d="M166.872 14.7929L166.874 13.9387C165.172 13.9351 163.445 13.9711 161.738 14.0432L161.776 14.8964C163.468 14.8245 165.183 14.7896 166.872 14.7929Z" fill="white"/>
<path d="M151.372 15.8066L151.62 15.7733C153.303 15.5538 155.008 15.3693 156.689 15.2242L156.615 14.373C154.923 14.5197 153.206 14.7059 151.508 14.927L151.262 14.9593L151.372 15.8066Z" fill="white"/>
<path d="M177.053 15.2616L177.131 14.411C175.434 14.2572 173.709 14.1399 172.008 14.0615L171.969 14.914C173.659 14.9921 175.369 15.1087 177.053 15.2616Z" fill="white"/>
<path d="M206.833 22.0576L207.134 21.2577C205.529 20.658 203.895 20.0874 202.276 19.5625L202.012 20.3748C203.619 20.8958 205.241 21.4622 206.833 22.0576Z" fill="white"/>
<path d="M197.117 18.9081L197.343 18.0843C195.702 17.631 194.022 17.2086 192.351 16.8271L192.162 17.6601C193.818 18.0376 195.486 18.458 197.117 18.9081Z" fill="white"/>
<path d="M187.155 16.6342L187.309 15.7944C185.629 15.489 183.922 15.2179 182.236 14.9893L182.121 15.8352C183.795 16.0629 185.489 16.332 187.155 16.6342Z" fill="white"/>
<path d="M267.359 74.1681L268.104 73.7536C267.278 72.2642 266.409 70.7761 265.522 69.3291L264.793 69.7763C265.674 71.2121 266.538 72.6904 267.359 74.1681Z" fill="white"/>
<path d="M252.832 207.734C253.971 206.465 255.097 205.157 256.18 203.841L255.52 203.298C254.446 204.604 253.328 205.905 252.195 207.163L252.832 207.734Z" fill="white"/>
<path d="M259.354 199.804C260.376 198.443 261.385 197.039 262.348 195.632L261.645 195.147C260.686 196.546 259.687 197.94 258.672 199.291L259.354 199.804Z" fill="white"/>
<path d="M265.157 191.329C266.06 189.881 266.939 188.393 267.777 186.907L267.032 186.488C266.202 187.963 265.327 189.441 264.434 190.877L265.157 191.329Z" fill="white"/>
<path d="M229.479 227.652C230.906 226.729 232.334 225.762 233.723 224.775L233.229 224.078C231.848 225.059 230.432 226.019 229.016 226.933L229.479 227.652Z" fill="white"/>
<path d="M270.195 182.373C270.966 180.85 271.711 179.29 272.415 177.737L271.635 177.384C270.939 178.928 270.198 180.477 269.434 181.989L270.195 182.373Z" fill="white"/>
<path d="M237.835 221.714C239.176 220.669 240.512 219.579 241.811 218.47L241.257 217.82C239.968 218.92 238.641 220.003 237.311 221.04L237.835 221.714Z" fill="white"/>
<path d="M245.64 215.057C246.886 213.892 248.123 212.687 249.315 211.474L248.705 210.875C247.522 212.081 246.294 213.277 245.057 214.43L245.64 215.057Z" fill="white"/>
<path d="M280.447 112.571L281.292 112.441C281.032 110.748 280.734 109.047 280.405 107.384L279.566 107.549C279.893 109.2 280.19 110.89 280.447 112.571Z" fill="white"/>
<path d="M274.424 173.003C275.058 171.418 275.663 169.796 276.225 168.183L275.418 167.902C274.861 169.503 274.26 171.112 273.631 172.685L274.424 173.003Z" fill="white"/>
<path d="M275.611 92.7858L276.421 92.5105C275.87 90.897 275.277 89.2736 274.657 87.6875L273.861 87.9981C274.478 89.5735 275.067 91.1831 275.611 92.7858Z" fill="white"/>
<path d="M278.466 102.571L279.295 102.369C278.892 100.716 278.445 99.0459 277.968 97.4082L277.146 97.6473C277.622 99.2736 278.065 100.93 278.466 102.571Z" fill="white"/>
<path d="M282.402 122.651C282.294 120.958 282.144 119.236 281.958 117.534L281.109 117.627C281.293 119.317 281.441 121.026 281.551 122.706L282.402 122.651Z" fill="white"/>
<path d="M280.316 153.305C280.657 151.636 280.966 149.936 281.232 148.251L280.388 148.117C280.124 149.789 279.819 151.477 279.48 153.135L280.316 153.305Z" fill="white"/>
<path d="M281.92 143.162C282.112 141.469 282.267 139.747 282.383 138.046L281.53 137.989C281.415 139.677 281.263 141.384 281.072 143.067L281.92 143.162Z" fill="white"/>
<path d="M282.617 132.915C282.657 131.211 282.659 129.483 282.625 127.78L281.771 127.799C281.805 129.488 281.803 131.203 281.764 132.896L282.617 132.915Z" fill="white"/>
<path d="M216.302 103.383C216.88 100.63 217.002 97.7903 216.092 95.098C215.044 91.9989 211.688 91.9375 211.688 91.9375H165.168V103.384L216.302 103.383Z" fill="#C4A15F"/>
<path d="M216.703 103.876H164.676V91.4434H211.689C211.735 91.444 215.415 91.5508 216.561 94.9396C217.399 97.4203 217.473 100.216 216.786 103.484L216.703 103.876ZM165.663 102.889H215.899C216.463 99.9674 216.373 97.4664 215.626 95.2558C214.705 92.5333 211.802 92.4334 211.679 92.4304H165.663V102.889Z" fill="white"/>
<path d="M211.938 91.9375H161.654C157.196 91.9375 155.756 94.4744 155.756 98.6716V163.153H156.635V169.908H203.155C203.155 169.908 206.511 169.846 207.559 166.747C207.956 165.571 208.148 164.366 208.199 163.153H208.22C208.22 162.993 208.22 162.829 208.22 162.666C208.22 162.631 208.22 162.596 208.22 162.561C208.22 140.219 208.22 99.3533 208.22 99.3533C208.22 99.3533 207.749 92.6515 211.938 91.9375Z" fill="white"/>
<path d="M203.159 170.4H156.141V163.646H155.262V98.671C155.262 93.7399 157.293 91.4434 161.653 91.4434H211.937L212.02 92.4236C208.314 93.0553 208.708 99.2556 208.711 99.3177L208.713 163.646H208.665C208.58 164.816 208.37 165.886 208.026 166.905C206.88 170.294 203.2 170.4 203.164 170.4H203.159ZM157.128 169.414H203.149C203.321 169.409 206.179 169.287 207.091 166.589C207.451 165.524 207.652 164.392 207.706 163.132L207.726 162.598V99.353C207.71 99.1433 207.422 94.5486 209.79 92.4307H161.654C157.866 92.4307 156.249 94.2974 156.249 98.6716V162.66H157.128V169.414Z" fill="white"/>
<path d="M180.466 106.165H161.752V107.582H180.466V106.165Z" fill="#BCBEC0"/>
<path d="M181.206 105.425H161.012V108.322H181.206V105.425Z" fill="#BCBEC0"/>
<path d="M203.663 106.165H184.949V107.582H203.663V106.165Z" fill="#BCBEC0"/>
<path d="M204.404 105.425H184.209V108.322H204.404V105.425Z" fill="#BCBEC0"/>
<path d="M180.466 111.43H161.752V112.846H180.466V111.43Z" fill="#BCBEC0"/>
<path d="M181.206 110.689H161.012V113.586H181.206V110.689Z" fill="#BCBEC0"/>
<path d="M203.663 111.43H184.949V112.846H203.663V111.43Z" fill="#BCBEC0"/>
<path d="M204.404 110.689H184.209V113.586H204.404V110.689Z" fill="#BCBEC0"/>
<path d="M180.466 118.344H161.752V119.76H180.466V118.344Z" fill="#BCBEC0"/>
<path d="M181.206 117.604H161.012V120.501H181.206V117.604Z" fill="#BCBEC0"/>
<path d="M203.663 118.344H184.949V119.76H203.663V118.344Z" fill="#BCBEC0"/>
<path d="M204.404 117.604H184.209V120.501H204.404V117.604Z" fill="#BCBEC0"/>
<path d="M180.466 123.609H161.752V125.027H180.466V123.609Z" fill="#BCBEC0"/>
<path d="M181.206 122.869H161.012V125.767H181.206V122.869Z" fill="#BCBEC0"/>
<path d="M203.663 123.609H184.949V125.027H203.663V123.609Z" fill="#BCBEC0"/>
<path d="M204.404 122.869H184.209V125.767H204.404V122.869Z" fill="#BCBEC0"/>
<path d="M180.466 132.165H161.752V133.582H180.466V132.165Z" fill="#BCBEC0"/>
<path d="M181.206 131.424H161.012V134.322H181.206V131.424Z" fill="#BCBEC0"/>
<path d="M203.663 132.165H184.949V133.582H203.663V132.165Z" fill="#BCBEC0"/>
<path d="M204.404 131.424H184.209V134.322H204.404V131.424Z" fill="#BCBEC0"/>
<path d="M180.466 137.43H161.752V138.846H180.466V137.43Z" fill="#BCBEC0"/>
<path d="M181.206 136.689H161.012V139.586H181.206V136.689Z" fill="#BCBEC0"/>
<path d="M203.663 137.43H184.949V138.846H203.663V137.43Z" fill="#BCBEC0"/>
<path d="M204.404 136.689H184.209V139.586H204.404V136.689Z" fill="#BCBEC0"/>
<path d="M180.466 144.343H161.752V145.76H180.466V144.343Z" fill="#BCBEC0"/>
<path d="M181.206 143.603H161.012V146.5H181.206V143.603Z" fill="#BCBEC0"/>
<path d="M203.663 144.343H184.949V145.76H203.663V144.343Z" fill="#BCBEC0"/>
<path d="M204.404 143.603H184.209V146.5H204.404V143.603Z" fill="#BCBEC0"/>
<path d="M180.466 149.608H161.752V151.026H180.466V149.608Z" fill="#BCBEC0"/>
<path d="M181.206 148.868H161.012V151.766H181.206V148.868Z" fill="#BCBEC0"/>
<path d="M203.663 149.608H184.949V151.026H203.663V149.608Z" fill="#BCBEC0"/>
<path d="M204.404 148.868H184.209V151.766H204.404V148.868Z" fill="#BCBEC0"/>
<path d="M199.684 162.491C199.684 162.491 199.684 101.373 199.684 67.7971H199.678C199.701 66.2838 199.519 64.7764 199.024 63.3131C197.976 60.2141 194.62 60.1523 194.62 60.1523H148.1V67.7971H147.219V163.172C147.219 167.37 148.659 169.907 153.117 169.907H203.4C199.212 169.192 199.684 162.491 199.684 162.491Z" fill="#C4A15F"/>
<path d="M203.401 170.4H153.118C148.758 170.4 146.727 168.104 146.727 163.173V67.3039H147.607V59.6592H194.621C194.667 59.6598 198.347 59.7666 199.492 63.1554C199.943 64.4881 200.166 65.8997 200.174 67.462L200.178 67.7974V162.491C200.172 162.588 199.787 168.79 203.484 169.421L203.401 170.4ZM147.713 68.291V163.173C147.713 167.548 149.33 169.414 153.118 169.414H201.255C198.887 167.295 199.175 162.695 199.192 162.457L199.191 68.2913H199.183L199.185 67.7903C199.209 66.2055 199.004 64.7928 198.558 63.4719C197.637 60.7491 194.734 60.6492 194.61 60.6466H148.595V68.2913H147.713V68.291Z" fill="white"/>
<path d="M191.152 131.369C191.152 109.165 191.152 67.5681 191.152 67.5681C191.152 67.5681 190.681 60.8667 194.869 60.1523H144.586C140.128 60.1523 138.688 62.6893 138.688 66.8864V131.368L191.152 131.369Z" fill="white"/>
<path d="M191.646 131.862H138.193V66.8868C138.193 61.9557 140.225 59.6592 144.585 59.6592H194.869L194.952 60.6394C191.246 61.2714 191.639 67.4715 191.643 67.5339L191.646 131.862ZM139.18 130.875H190.658V67.5682C190.642 67.3585 190.354 62.7638 192.722 60.6459H144.586C140.798 60.6459 139.181 62.5123 139.181 66.8865V130.875H139.18Z" fill="white"/>
<path d="M190.704 126.776C191.283 129.53 191.405 132.369 190.494 135.061C189.446 138.16 186.091 138.222 186.091 138.222H139.57V126.776H190.704Z" fill="white"/>
<path d="M186.095 138.716H139.076V126.283H191.104L191.186 126.675C191.873 129.944 191.8 132.738 190.961 135.22C189.816 138.608 186.137 138.715 186.099 138.716H186.095ZM140.063 137.729H186.084C186.256 137.724 189.114 137.601 190.026 134.904C190.773 132.693 190.863 130.192 190.299 127.27H140.063V137.729Z" fill="white"/>
<path d="M162.667 79.2451H143.953V80.662H162.667V79.2451Z" fill="#BCBEC0"/>
<path d="M163.408 78.5049H143.213V81.4024H163.408V78.5049Z" fill="#BCBEC0"/>
<path d="M185.866 79.2451H167.15V80.662H185.866V79.2451Z" fill="#BCBEC0"/>
<path d="M186.606 78.5049H166.41V81.4024H186.606V78.5049Z" fill="#BCBEC0"/>
<path d="M162.667 84.5098H143.953V85.926H162.667V84.5098Z" fill="#BCBEC0"/>
<path d="M163.408 83.7695H143.213V86.6661H163.408V83.7695Z" fill="#BCBEC0"/>
<path d="M185.866 84.5098H167.15V85.926H185.866V84.5098Z" fill="#BCBEC0"/>
<path d="M186.606 83.7695H166.41V86.6661H186.606V83.7695Z" fill="#BCBEC0"/>
<path d="M162.667 91.4238H143.953V92.8404H162.667V91.4238Z" fill="#BCBEC0"/>
<path d="M163.408 90.6836H143.213V93.5808H163.408V90.6836Z" fill="#BCBEC0"/>
<path d="M185.866 91.4238H167.15V92.8404H185.866V91.4238Z" fill="#BCBEC0"/>
<path d="M186.606 90.6836H166.41V93.5808H186.606V90.6836Z" fill="#BCBEC0"/>
<path d="M162.667 96.6885H143.953V98.1057H162.667V96.6885Z" fill="#BCBEC0"/>
<path d="M163.408 95.9482H143.213V98.8458H163.408V95.9482Z" fill="#BCBEC0"/>
<path d="M185.866 96.6885H167.15V98.1057H185.866V96.6885Z" fill="#BCBEC0"/>
<path d="M186.606 95.9482H166.41V98.8458H186.606V95.9482Z" fill="#BCBEC0"/>
<path d="M162.667 105.244H143.953V106.661H162.667V105.244Z" fill="#BCBEC0"/>
<path d="M163.408 104.504H143.213V107.402H163.408V104.504Z" fill="#BCBEC0"/>
<path d="M185.866 105.244H167.15V106.661H185.866V105.244Z" fill="#BCBEC0"/>
<path d="M186.606 104.504H166.41V107.402H186.606V104.504Z" fill="#BCBEC0"/>
<path d="M162.667 110.509H143.953V111.925H162.667V110.509Z" fill="#BCBEC0"/>
<path d="M163.408 109.769H143.213V112.665H163.408V109.769Z" fill="#BCBEC0"/>
<path d="M185.866 110.509H167.15V111.925H185.866V110.509Z" fill="#BCBEC0"/>
<path d="M186.606 109.769H166.41V112.665H186.606V109.769Z" fill="#BCBEC0"/>
<path d="M162.667 117.423H143.953V118.84H162.667V117.423Z" fill="#BCBEC0"/>
<path d="M163.408 116.683H143.213V119.58H163.408V116.683Z" fill="#BCBEC0"/>
<path d="M185.866 117.423H167.15V118.84H185.866V117.423Z" fill="#BCBEC0"/>
<path d="M186.606 116.683H166.41V119.58H186.606V116.683Z" fill="#BCBEC0"/>
<path d="M162.667 122.688H143.953V124.104H162.667V122.688Z" fill="#BCBEC0"/>
<path d="M163.408 121.947H143.213V124.845H163.408V121.947Z" fill="#BCBEC0"/>
<path d="M185.866 122.688H167.15V124.104H185.866V122.688Z" fill="#BCBEC0"/>
<path d="M186.606 121.947H166.41V124.845H186.606V121.947Z" fill="#BCBEC0"/>
<path d="M182.621 130.807C182.621 130.807 182.621 119.516 182.621 105.563C182.625 105.342 182.627 105.121 182.621 104.9C182.621 104.859 182.621 104.818 182.621 104.777H182.616C182.575 103.51 182.383 102.251 181.968 101.023C180.92 97.924 177.565 97.8623 177.565 97.8623H131.044V104.777H130.156V131.488C130.156 135.685 131.596 138.222 136.055 138.222H186.338C182.15 137.508 182.621 130.807 182.621 130.807Z" fill="#C4A15F"/>
<path d="M186.337 138.716H136.055C131.693 138.716 129.662 136.419 129.662 131.489V104.284H130.55V97.3691H177.564C177.61 97.3698 181.29 97.4769 182.435 100.865C182.797 101.935 183.011 103.058 183.086 104.284H183.108L183.113 104.9C183.119 105.116 183.117 105.343 183.113 105.572V130.807C183.108 130.904 182.723 137.106 186.42 137.736L186.337 138.716ZM130.649 105.271V131.489C130.649 135.863 132.266 137.729 136.055 137.729H184.191C181.823 135.61 182.111 131.01 182.128 130.772L182.127 105.563C182.131 105.342 182.133 105.129 182.127 104.917L182.122 104.793C182.08 103.477 181.877 102.296 181.5 101.181C180.58 98.4591 177.677 98.3588 177.554 98.3559H131.537V105.27H130.649V105.271Z" fill="white"/>
<path fill-rule="evenodd" clip-rule="evenodd" d="M175.292 113.451H119.618C117.652 113.451 116.041 115.032 116.041 116.965V155.696V158.002V196.01C116.041 197.941 117.652 199.522 119.618 199.522H175.292C177.262 199.522 178.87 197.941 178.87 196.01V158.002V155.696V116.965C178.871 115.032 177.262 113.451 175.292 113.451Z" fill="#1A9090"/>
<path d="M174.095 188.309C174.095 163.145 174.095 105.278 174.095 105.278C174.095 105.278 173.624 98.5766 177.812 97.8623H127.53C123.071 97.8623 121.631 100.4 121.631 104.596V188.309H174.095Z" fill="white"/>
<path d="M174.588 188.802H121.137V104.597C121.137 99.6657 123.168 97.3691 127.529 97.3691H177.812L177.895 98.3494C174.19 98.9814 174.582 105.181 174.587 105.243L174.588 188.802ZM122.124 187.815H173.601V105.278C173.586 105.069 173.297 100.474 175.666 98.3562H127.529C123.74 98.3562 122.124 100.223 122.124 104.597V187.815Z" fill="white"/>
<path d="M145.214 157.441H126.5V158.858H145.214V157.441Z" fill="#BCBEC0"/>
<path d="M145.955 156.701H125.76V159.599H145.955V156.701Z" fill="#BCBEC0"/>
<path d="M168.412 157.441H149.697V158.858H168.412V157.441Z" fill="#BCBEC0"/>
<path d="M169.152 156.701H148.957V159.599H169.152V156.701Z" fill="#BCBEC0"/>
<path d="M145.214 162.706H126.5V164.122H145.214V162.706Z" fill="#BCBEC0"/>
<path d="M145.955 161.966H125.76V164.863H145.955V161.966Z" fill="#BCBEC0"/>
<path d="M168.412 162.706H149.697V164.122H168.412V162.706Z" fill="#BCBEC0"/>
<path d="M169.152 161.966H148.957V164.863H169.152V161.966Z" fill="#BCBEC0"/>
<path d="M145.214 169.621H126.5V171.038H145.214V169.621Z" fill="#BCBEC0"/>
<path d="M145.955 168.88H125.76V171.777H145.955V168.88Z" fill="#BCBEC0"/>
<path d="M168.412 169.621H149.697V171.038H168.412V169.621Z" fill="#BCBEC0"/>
<path d="M169.152 168.88H148.957V171.777H169.152V168.88Z" fill="#BCBEC0"/>
<path d="M145.214 174.886H126.5V176.303H145.214V174.886Z" fill="#BCBEC0"/>
<path d="M145.955 174.145H125.76V177.042H145.955V174.145Z" fill="#BCBEC0"/>
<path d="M168.412 174.886H149.697V176.303H168.412V174.886Z" fill="#BCBEC0"/>
<path d="M169.152 174.145H148.957V177.042H169.152V174.145Z" fill="#BCBEC0"/>
<path fill-rule="evenodd" clip-rule="evenodd" d="M149.961 194.08C149.961 195.464 148.84 196.586 147.455 196.586C146.069 196.586 144.949 195.464 144.949 194.08C144.949 192.697 146.069 191.575 147.455 191.575C148.84 191.575 149.961 192.697 149.961 194.08Z" fill="white"/>
<path d="M135.581 129.089H127.371V140.571H135.581V129.089Z" fill="#C4A15F"/>
<path d="M146.062 120.029H137.852V140.572H146.062V120.029Z" fill="#C4A15F"/>
<path d="M156.934 109.482H148.723V140.572H156.934V109.482Z" fill="#C4A15F"/>
<path d="M167.54 114.624H159.33V140.571H167.54V114.624Z" fill="#C4A15F"/>
<path d="M167.583 143.241H159.369V151.413H167.583V143.241Z" fill="#F76031"/>
<path d="M156.803 143.241H148.592V151.413H156.803V143.241Z" fill="#F76031"/>
<path d="M146.323 143.241H138.111V151.413H146.323V143.241Z" fill="#F76031"/>
<path d="M135.542 143.241H127.33V151.413H135.542V143.241Z" fill="#F76031"/>
<path d="M205.579 192.734C205.579 192.734 204.977 188.582 202.091 185.975C199.204 183.366 202.063 178.411 205.173 180.468C208.283 182.527 213.163 181.704 213.163 181.704L205.579 192.734Z" fill="#BCBEC0"/>
<path opacity="0.5" d="M207.748 161.597C210.838 176.767 201.049 191.567 185.882 194.657C170.714 197.748 155.913 187.959 152.822 172.792C149.731 157.624 159.521 142.824 174.689 139.731C189.855 136.641 204.657 146.432 207.748 161.597Z" fill="#E2E2E2"/>
<path d="M151.182 173.125C147.908 157.052 158.281 141.368 174.354 138.092C190.428 134.818 206.112 145.19 209.388 161.263C212.663 177.336 202.29 193.018 186.216 196.297C170.141 199.57 154.459 189.197 151.182 173.125ZM154.461 172.458C157.394 186.713 171.281 195.898 185.547 193.015C199.803 190.086 208.989 176.198 206.109 161.931C203.176 147.675 189.289 138.489 175.024 141.37C160.766 144.303 151.58 158.189 154.461 172.458Z" fill="#BCBEC0"/>
<path d="M217.924 184.962L217.928 184.944L213.162 181.705L205.578 192.734L214.472 198.817V198.819L249.663 222.893L257.247 211.863L217.924 184.962Z" fill="#1A9090"/>
<path d="M262.429 93.1869L264.866 95.6305L262.879 97.6183L260.435 95.1805L258.003 97.6183L256.009 95.6305L258.447 93.1869L255.992 90.732L257.98 88.7441L260.435 91.1991L262.879 88.7612L264.866 90.7548L262.429 93.1869Z" fill="#FFFEFD"/>
<path d="M293.586 100.365L306.918 111.265L296.018 124.598L282.686 113.699L293.586 100.365ZM305.599 111.398L293.718 101.686L284.006 113.566L295.886 123.278L305.599 111.398ZM301.016 111.858L294.178 106.268L288.588 113.105L295.426 118.695L301.016 111.858Z" fill="#FFFEFD"/>
<path d="M294.054 104.941L287.275 113.229L295.564 120.008L302.342 111.72L294.054 104.941Z" fill="#FFFEFD"/>
<path d="M309.564 77.9977C304.448 77.9977 300.293 73.8426 300.293 68.7351C300.293 63.6276 304.448 59.4639 309.564 59.4639C314.672 59.4639 318.827 63.6276 318.827 68.7351C318.827 73.8426 314.672 77.9977 309.564 77.9977ZM303.756 68.7351C303.756 71.9379 306.362 74.5352 309.565 74.5352C312.759 74.5352 315.365 71.9385 315.365 68.7351C315.365 65.5323 312.759 62.9264 309.565 62.9264C306.361 62.9264 303.756 65.5323 303.756 68.7351Z" fill="#FFAC33"/>
<path d="M278.205 84.7214C275.199 84.7214 272.758 82.2802 272.758 79.279C272.758 76.2784 275.199 73.832 278.205 73.832C281.205 73.832 283.647 76.2784 283.647 79.279C283.647 82.2802 281.205 84.7214 278.205 84.7214ZM274.792 79.279C274.792 81.1609 276.323 82.6869 278.205 82.6869C280.082 82.6869 281.613 81.1609 281.613 79.279C281.613 77.3971 280.082 75.866 278.205 75.866C276.323 75.8666 274.792 77.3977 274.792 79.279Z" fill="#FFAC33"/>
<path d="M313.561 92.4205L319.803 96.7305L324.113 90.4886L317.871 86.1787L313.561 92.4205Z" fill="#CBF4F4"/>
<path d="M287.058 63.1674C289.613 63.1674 291.684 61.0962 291.684 58.5412C291.684 55.9863 289.613 53.915 287.058 53.915C284.503 53.915 282.432 55.9863 282.432 58.5412C282.432 61.0962 284.503 63.1674 287.058 63.1674Z" fill="#CBF4F4"/>
<path d="M22.1512 72.3526L17.4583 77.0461L22.1136 81.7093L18.3122 85.5107L13.6569 80.8475L8.99366 85.5102L5.19336 81.7087L9.85545 77.0461L5.19336 72.3908L8.99366 68.5894L13.6569 73.2446L18.3497 68.5518L22.1512 72.3526ZM8.99423 69.8544L6.45956 72.3897L11.1217 77.0449L6.45956 81.7081L8.99423 84.244L13.6575 79.5807L18.3127 84.244L20.8485 81.7081L16.1933 77.0449L20.8861 72.3526L18.3503 69.8168L13.6575 74.5097L8.99423 69.8544Z" fill="#FFBE55"/>
<path d="M87.9337 100.187L75.217 110.583L64.8203 97.8649L77.537 87.4688L87.9337 100.187ZM75.3429 109.324L86.6749 100.06L77.4111 88.7287L66.0791 97.9925L75.3429 109.324ZM83.5627 99.7474L75.6562 106.212L69.1919 98.3041L77.0984 91.8398L83.5627 99.7474ZM75.7821 104.952L82.3044 99.6204L76.9725 93.0992L70.4501 98.4311L75.7821 104.952Z" fill="#FFFEFD"/>
<path d="M26.3477 80.8961C26.3477 76.8332 29.653 73.5205 33.7164 73.5205C37.7862 73.5205 41.0921 76.8327 41.0921 80.8961C41.0921 84.959 37.7867 88.2649 33.7164 88.2649C29.6536 88.2649 26.3477 84.9596 26.3477 80.8961ZM33.7164 76.2756C31.1755 76.2756 29.1022 78.3483 29.1022 80.8967C29.1022 83.4445 31.1749 85.5109 33.7164 85.5109C36.2642 85.5109 38.3375 83.445 38.3375 80.8967C38.3375 78.3483 36.2642 76.2756 33.7164 76.2756Z" fill="#FF5331"/>
<path d="M0 121.25C0 118.388 2.32848 116.055 5.19067 116.055C8.05799 116.055 10.3865 118.388 10.3865 121.25C10.3865 124.113 8.05799 126.441 5.19067 126.441C2.32848 126.442 0 124.113 0 121.25ZM5.19067 117.995C3.40045 117.995 1.94059 119.456 1.94059 121.25C1.94059 123.045 3.40102 124.501 5.19067 124.501C6.98545 124.501 8.44588 123.045 8.44588 121.25C8.44588 119.456 6.98545 117.995 5.19067 117.995Z" fill="#38B2AC"/>
<path d="M18.2583 94.602L12.3047 98.7129L16.4156 104.667L22.3692 100.556L18.2583 94.602Z" fill="#FFBE55"/>
<path d="M51.0053 103.677C52.2897 103.677 53.331 102.635 53.331 101.351C53.331 100.067 52.2897 99.0254 51.0053 99.0254C49.7209 99.0254 48.6797 100.067 48.6797 101.351C48.6797 102.635 49.7209 103.677 51.0053 103.677Z" fill="#FFBE55"/>
<path d="M21.3233 123.384C23.1372 123.384 24.6076 121.914 24.6076 120.1C24.6076 118.286 23.1372 116.815 21.3233 116.815C19.5095 116.815 18.0391 118.286 18.0391 120.1C18.0391 121.914 19.5095 123.384 21.3233 123.384Z" fill="#FF5331"/>
<path d="M300.293 51.2816C302.039 51.2816 303.454 49.866 303.454 48.1198C303.454 46.3736 302.039 44.958 300.293 44.958C298.546 44.958 297.131 46.3736 297.131 48.1198C297.131 49.866 298.546 51.2816 300.293 51.2816Z" fill="#FF5331"/>
<path d="M261.863 60.2789C263.53 60.2789 264.881 58.9273 264.881 57.26C264.881 55.5928 263.53 54.2412 261.863 54.2412C260.195 54.2412 258.844 55.5928 258.844 57.26C258.844 58.9273 260.195 60.2789 261.863 60.2789Z" fill="#56D8CF"/>
</svg>
