<svg width="36" height="36" viewBox="0 0 36 36" fill="none" xmlns="http://www.w3.org/2000/svg">
<g clip-path="url(#clip0_294_2520)">
<path d="M32 0H4C1.791 0 0 2.47985 0 5.53846V30.4615C0 33.5202 1.791 36 4 36H32C34.209 36 36 33.5202 36 30.4615V5.53846C36 2.47985 34.209 0 32 0Z" fill="#006C35"/>
<path d="M8.89509 14.05C9.52542 14.11 9.17735 12.981 9.40574 12.776C9.44863 12.675 9.52842 12.674 9.5344 12.802V13.76C9.52842 14.072 9.73288 14.163 9.89146 14.228C10.057 14.215 10.1667 14.221 10.2316 14.382L10.3093 16.04C10.3093 16.04 10.6923 16.15 10.7103 15.107C10.7292 14.495 10.5886 13.983 10.6714 13.864C10.6744 13.747 10.823 13.74 10.9267 13.797C11.0913 13.913 11.1651 14.057 11.4204 14C11.8104 13.893 12.0438 13.703 12.0497 13.403C12.0268 13.118 11.9949 12.833 11.8722 12.548C11.8892 12.496 11.7974 12.362 11.8144 12.31C11.8842 12.42 11.9909 12.411 12.0148 12.31C11.949 12.091 11.8463 11.881 11.6787 11.79C11.5411 11.668 11.3396 11.693 11.2658 11.947C11.2319 12.239 11.3715 12.587 11.583 12.87C11.6279 12.981 11.6917 13.165 11.6638 13.331C11.5511 13.395 11.4374 13.369 11.3436 13.269C11.3436 13.269 11.0334 13.036 11.0334 12.984C11.1162 12.456 11.0524 12.396 11.0065 12.25C10.9746 12.048 10.8788 11.983 10.801 11.845C10.7233 11.763 10.6185 11.763 10.5687 11.845C10.431 12.083 10.4949 12.595 10.5946 12.824C10.6654 13.034 10.7751 13.167 10.7233 13.167C10.6804 13.286 10.5926 13.258 10.5288 13.121C10.437 12.837 10.4191 12.414 10.4191 12.223C10.3911 11.987 10.3612 11.482 10.2066 11.354C10.1119 11.225 9.97124 11.287 9.92237 11.406C9.9124 11.64 9.9104 11.875 9.93733 12.092C10.0431 12.471 10.077 12.805 10.1288 13.194C10.1428 13.715 9.82862 13.42 9.84259 13.162C9.91539 12.827 9.89644 12.299 9.83161 12.165C9.78075 12.032 9.71991 11.998 9.59624 12.02C9.4985 12.012 9.24517 12.29 9.17336 12.75C9.17336 12.75 9.11252 12.987 9.08659 13.198C9.05168 13.436 8.89609 13.604 8.78638 13.165C8.69163 12.846 8.63379 12.059 8.47521 12.243C8.42933 12.858 8.37447 13.94 8.89509 14.05Z" fill="white"/>
<path d="M9.84348 14.499C9.32486 14.509 8.56587 15.182 8.54492 15.555C9.09147 15.291 9.62905 15.037 10.1856 14.765C10.0958 14.63 10.1806 14.509 9.84348 14.499Z" fill="white"/>
<path d="M12.7031 16.5158C12.9435 15.7128 12.6642 15.1208 12.7949 15.1238C13.0711 15.4228 13.4581 15.1638 13.5429 15.0598C13.5798 15.0078 13.6706 14.9738 13.7344 15.0418C13.9508 15.1978 14.3318 15.1238 14.4106 14.8498C14.4565 14.5818 14.4934 14.3038 14.5024 14.0168C14.3258 14.0718 14.1942 14.1088 14.1822 14.1818L14.1453 14.4198C14.1303 14.4968 13.9777 14.4998 13.9718 14.4018C13.9049 14.0968 13.6277 14.0568 13.4601 14.5298C13.3474 14.6218 13.144 14.6398 13.122 14.5028C13.1489 14.1858 13.0213 14.1428 12.766 14.2918C12.6842 13.6628 12.6014 13.0618 12.5196 12.4328C12.6263 12.4298 12.7241 12.5088 12.8208 12.3868C12.7141 12.0538 12.4887 11.3738 12.364 11.3248C12.3032 11.2508 12.2513 11.2968 12.1725 11.3158C12.0389 11.3588 11.9142 11.4748 11.9531 11.6998C12.1117 12.6648 12.2154 13.3998 12.373 14.3648C12.3969 14.4778 12.3032 14.6268 12.1815 14.6118C11.9751 14.4718 11.9232 14.1878 11.5701 14.1998C11.3138 14.2028 11.0216 14.4808 10.9857 14.7498C10.9428 14.9628 10.9278 15.1948 10.9857 15.3818C11.1652 15.5978 11.3816 15.5768 11.5701 15.5278C11.7247 15.4638 11.8534 15.3078 11.9072 15.3448C11.9441 15.3898 11.9162 15.9028 11.1772 16.2968C10.7294 16.4978 10.3733 16.5438 10.1818 16.1778C10.0631 15.9488 10.1908 15.0788 9.89855 15.2808C9.03384 17.5158 11.9232 17.8258 12.2463 15.3728C12.2773 15.2718 12.3989 15.1708 12.4199 15.3358C12.353 17.5578 10.1848 17.7108 9.81677 17.0118C9.72501 16.8468 9.69808 16.4808 9.68911 16.2608C9.63425 15.8238 9.40586 15.9918 9.36995 16.4248C9.33305 16.6658 9.34302 16.7338 9.34302 16.9648C9.45772 18.7198 12.2503 17.9658 12.7031 16.5158ZM11.626 14.9978C11.608 15.0318 11.5292 15.0178 11.4714 15.0178C11.4056 15.0148 11.3746 15.0038 11.3347 14.9508C11.3168 14.8908 11.3726 14.8338 11.3976 14.7888C11.4285 14.7358 11.5951 14.6808 11.6539 14.8288C11.6798 14.8958 11.6569 14.9648 11.626 14.9978Z" fill="white"/>
<path d="M13.5659 13.0089C13.7394 12.9449 14.5623 12.0019 14.5623 12.0019C14.5194 11.9649 14.4815 11.9379 14.4386 11.9009C14.3927 11.8609 14.3977 11.8209 14.4386 11.7819C14.6421 11.6629 14.5772 11.4019 14.4705 11.2829C14.294 11.2029 14.1404 11.2289 14.0277 11.2869C13.8851 11.4239 13.8512 11.6439 13.9639 11.7819C14.0736 11.8339 14.1833 11.9449 14.1105 12.0059C13.7744 12.3659 12.8528 12.9869 12.9595 13.0089C12.9825 13.0389 13.548 13.0379 13.5659 13.0089ZM14.1753 11.5279C14.2282 11.5149 14.296 11.5619 14.3279 11.6319C14.3598 11.7019 14.3429 11.7689 14.291 11.7819H14.289C14.2371 11.7949 14.1693 11.7479 14.1374 11.6779C14.1065 11.6069 14.1234 11.5409 14.1753 11.5279ZM8.83843 17.2579C8.70279 17.5349 8.64594 17.3449 8.63397 17.1899C8.61303 16.8959 8.64096 16.6249 8.67287 16.4109C8.70678 16.1909 8.67287 16.2579 8.60306 16.3469C8.29487 16.8389 8.26795 17.5749 8.43849 17.7939C8.52826 17.8979 8.67686 17.9439 8.78757 17.9099C8.98106 17.8259 9.06583 17.4319 9.01995 17.2889C8.95413 17.1879 8.90326 17.1719 8.83843 17.2579ZM18.9925 12.0499C19.3476 12.5279 19.6847 13.0149 20.0148 13.5109C20.0797 13.9409 20.1265 14.3609 20.1545 14.7779C20.2093 15.5819 20.2253 16.4519 20.1754 17.2989C20.325 17.3049 20.5674 17.0549 20.6511 16.6899C20.706 16.1849 20.6312 15.2859 20.6262 14.9879C20.6212 14.8289 20.6112 14.6339 20.5993 14.4279C20.9922 15.0719 21.3752 15.7459 21.7492 16.4949C21.8859 16.4309 21.8559 15.6649 21.7762 15.5569C21.4769 14.9139 21.065 14.2779 20.9334 14.0339C20.8845 13.9439 20.718 13.6879 20.5195 13.3949C20.4886 13.0589 20.4576 12.7869 20.4357 12.6969C20.3739 12.2689 20.6122 12.7439 20.5793 12.4949C20.5025 12.0669 20.2652 11.7779 19.9879 11.3859C19.8981 11.2589 19.9011 11.2329 19.7625 11.4169C19.7046 11.5479 19.6937 11.6609 19.6967 11.7679C19.6608 11.7149 19.6209 11.6599 19.558 11.5829C19.3177 11.3759 19.3037 11.3639 19.1042 11.1949C19.0035 11.1229 18.7582 10.9929 18.7143 11.2089C18.6923 11.3999 18.7043 11.5029 18.7362 11.6629C18.7621 11.7699 18.9167 11.9479 18.9925 12.0499ZM19.7306 12.0259C19.7495 12.1089 19.7695 12.1919 19.7824 12.2769L19.7974 12.3579C19.7386 12.2779 19.6897 12.2119 19.6667 12.1859C19.5032 11.9919 19.6388 12.0339 19.7306 12.0259Z" fill="white"/>
<path d="M21.8615 16.6931C21.5144 17.0561 21.0137 17.5031 20.4692 17.7101C20.4103 17.7761 20.6148 18.0591 20.8781 18.0591C21.3199 18.0071 21.7089 17.7581 22.0689 17.1031C22.1657 16.9511 22.3352 16.6241 22.3392 16.3701C22.3721 14.8841 22.2654 13.7271 22.043 12.6531C22.028 12.5491 22.037 12.4261 22.055 12.3941C22.0829 12.3601 22.1806 12.3941 22.2325 12.3101C22.3073 12.2321 22.032 11.5921 21.8744 11.3461C21.8186 11.2361 21.7996 11.1621 21.7069 11.3591C21.6091 11.5191 21.5443 11.7981 21.5523 12.0581C21.7627 13.5211 21.8276 14.8021 21.9652 16.2651C21.9762 16.4061 21.9552 16.6121 21.8615 16.6931ZM27.6761 12.9831C27.6611 12.8791 27.6152 12.6371 27.6332 12.6061C27.6611 12.5321 27.8057 12.6141 27.8576 12.5291C27.9334 12.4521 27.4846 11.8741 27.328 11.6281C27.2711 11.5181 27.2522 11.4441 27.1594 11.6411C27.0617 11.8011 27.0278 12.0881 27.0667 12.3401C27.3011 13.9291 27.4756 15.1231 27.5115 16.5321C27.4905 16.6661 27.4866 16.7381 27.4237 16.9061C27.2851 17.0841 27.1325 17.3061 26.9879 17.4141C26.8443 17.5211 26.5381 17.6241 26.4373 17.7031C26.1212 17.8881 26.1202 18.0991 26.3775 18.1061C26.8183 18.0541 27.3409 18.0181 27.701 17.4721C27.7977 17.3201 27.9124 16.9071 27.9174 16.6531C27.9503 15.1671 27.8985 14.0571 27.6761 12.9831ZM24.3339 14.2201C24.3379 14.0161 24.3569 13.7461 24.3678 13.5771C24.3728 13.5141 24.3878 13.4431 24.4476 13.4271C24.5084 13.4111 24.6162 13.4891 24.6172 13.4231C24.6052 13.2941 24.5793 13.1021 24.5065 13.0111C24.4067 12.8631 24.1424 12.8991 24.0955 13.1311C24.0965 13.2171 24.1354 13.2631 24.1285 13.3411C24.1165 13.3851 24.0706 13.4151 23.9619 13.3631C23.9799 13.3471 23.8911 13.2241 23.8911 13.2241C23.8063 13.1721 23.6926 13.2271 23.6198 13.2741C23.5789 13.3481 23.55 13.4751 23.5959 13.6041C23.7156 13.8311 24.1334 14.2161 24.3339 14.2201Z" fill="white"/>
<path d="M24.1929 12.4813C24.4851 12.8403 24.7833 13.2043 25.0835 13.5743C25.1484 14.4003 25.1653 15.0763 25.2292 15.9023C25.2202 16.2523 25.1125 16.5573 25.0097 16.6013C25.0097 16.6013 24.8552 16.6913 24.7514 16.5923C24.6756 16.5613 24.3734 16.0873 24.3734 16.0873C24.2188 15.9453 24.1171 15.9853 24.0074 16.0873C23.7042 16.3803 23.5676 16.9303 23.3621 17.3083C23.3083 17.3933 23.1586 17.4653 22.9921 17.3023C22.5702 16.7233 22.8176 15.9003 22.7657 16.1123C22.3897 16.5373 22.5552 17.2403 22.64 17.3923C22.7637 17.6403 22.8644 17.8003 23.1058 17.9233C23.3252 18.0853 23.4968 17.9833 23.5905 17.8703C23.8119 17.6393 23.8149 17.0543 23.9186 16.9363C23.9904 16.7233 24.175 16.7593 24.2637 16.8543C24.3505 16.9783 24.4522 17.0583 24.5779 17.1273C24.7843 17.3103 25.0307 17.3433 25.273 17.1763C25.4386 17.0833 25.5473 16.9623 25.6441 16.7233C25.7518 16.4353 25.6929 15.1113 25.671 14.3173C25.8256 14.5173 25.9762 14.7263 26.1288 14.9353C26.1956 15.5983 26.2335 16.2583 26.2116 16.9323C26.1956 17.0673 26.6803 16.5323 26.6763 16.2783C26.6743 16.0733 26.6763 15.8873 26.6763 15.7123C26.9097 16.0643 27.1371 16.4273 27.3505 16.8113C27.4842 16.7413 27.4403 15.9863 27.3555 15.8823C27.1092 15.4683 26.7811 15.0373 26.5547 14.7293C26.5397 14.6903 26.5317 14.6463 26.5138 14.6093C26.423 14.3983 26.4798 14.2283 26.437 14.0043C26.3951 13.7793 26.406 13.4433 26.3412 13.1763C26.3233 13.0723 26.2694 12.7383 26.2854 12.7073C26.3113 12.6323 26.411 12.7093 26.4599 12.6233C26.5327 12.5433 26.2076 11.6983 26.042 11.4563C25.9822 11.3483 25.8745 11.3853 25.7408 11.5613C25.6181 11.6773 25.664 11.9413 25.7109 12.1923C25.8276 12.8003 25.9253 13.3833 26.0091 13.9603C25.8485 13.7453 25.654 13.4913 25.4655 13.2473L25.4576 13.2033C25.4576 13.1923 25.4306 12.6793 25.4067 12.5573C25.4027 12.5083 25.3907 12.4933 25.4426 12.4993C25.4975 12.5453 25.5044 12.5483 25.5393 12.5643C25.5952 12.5743 25.6441 12.4793 25.6112 12.3923L25.0955 11.4403C25.0546 11.3993 25.0008 11.3553 24.9359 11.4513C24.8731 11.5063 24.8063 11.6063 24.8083 11.7343C24.8242 11.9593 24.8631 12.1893 24.8781 12.4153L24.9 12.5373C24.8771 12.5103 24.8492 12.4763 24.8372 12.4643C24.3994 12.0023 25.0387 12.3893 24.7534 12.0323C24.5121 11.7663 24.4422 11.6833 24.2348 11.5233C24.1311 11.4563 24.0682 11.3283 24.0343 11.5463C24.0214 11.7373 24.0074 11.9603 24.0194 12.1213C24.0194 12.2133 24.1121 12.3813 24.1929 12.4813ZM15.3154 13.5603C15.5668 13.6643 15.7273 13.1843 15.8311 12.6583C15.9009 12.5103 15.9547 12.4943 15.9906 12.5703C15.9817 13.2703 16.0405 13.4253 16.22 13.6383C16.62 13.9483 16.9511 13.6773 16.978 13.6513L17.2892 13.3393C17.358 13.2663 17.4508 13.2613 17.5485 13.3263C17.6443 13.4123 17.6313 13.5623 17.8348 13.6663C18.0063 13.7353 18.3733 13.6823 18.4581 13.5343C18.5728 13.3383 18.6007 13.2703 18.6526 13.1963C18.7344 13.0873 18.874 13.1363 18.874 13.1703C18.861 13.2313 18.7793 13.2923 18.8351 13.4013C18.9328 13.4743 18.9548 13.4273 19.0126 13.4113C19.2161 13.3133 19.3677 12.8713 19.3677 12.8713C19.3767 12.7063 19.2849 12.7203 19.2251 12.7543C19.1473 12.8013 19.1423 12.8173 19.0645 12.8653C18.9648 12.8803 18.7723 12.9463 18.6775 12.7983C18.5798 12.6203 18.5778 12.3723 18.504 12.1933C18.504 12.1803 18.3743 11.9103 18.495 11.8933C18.5558 11.9043 18.6845 11.9383 18.7054 11.8303C18.7683 11.7243 18.5688 11.4223 18.4332 11.2693C18.3145 11.1393 18.1499 11.1233 17.9913 11.2563C17.8796 11.3593 17.8956 11.4733 17.8737 11.5823C17.8457 11.7063 17.8517 11.8603 17.9784 12.0253C18.0891 12.2443 18.2915 12.5273 18.2247 12.9233C18.2247 12.9233 18.107 13.1113 17.9006 13.0873C17.8148 13.0683 17.6752 13.0313 17.6014 12.4813C17.5455 12.0643 17.6153 11.4813 17.4388 11.2083C17.375 11.0433 17.3291 10.8843 17.1735 11.1663C17.1316 11.2773 16.9521 11.4453 17.0827 11.7923C17.1895 12.0113 17.2324 12.3683 17.1845 12.7663C17.1107 12.8793 17.0947 12.9173 16.998 13.0303C16.8623 13.1763 16.7157 13.1393 16.603 13.0843C16.4973 13.0133 16.4155 12.9763 16.3676 12.7503C16.3766 12.3903 16.3966 11.8003 16.3307 11.6753C16.234 11.4813 16.0744 11.5513 16.0056 11.6103C15.6775 11.9113 15.5159 12.4183 15.4172 12.8213C15.3264 13.1153 15.2297 13.0313 15.1618 12.9123C14.9963 12.7563 14.9853 11.5393 14.7848 11.7403C14.4627 12.6543 14.9664 13.6583 15.3154 13.5603Z" fill="white"/>
<path d="M20.0842 15.5241L19.9884 15.4691L18.1124 15.4601C18.0156 15.4231 18.0446 15.3911 18.1124 15.3651C18.5602 15.3041 19.3571 15.1741 19.41 14.4071C19.401 14.0081 19.2384 13.7461 18.7497 13.6741C18.3916 13.7021 18.1353 14.0511 18.1762 14.4341C18.1593 14.5381 18.2101 14.7401 18.1054 14.7631C17.4162 14.8261 16.6652 15.2581 16.6403 15.5681C16.5984 15.5971 16.5046 15.5131 16.5166 15.3811C16.4907 14.8461 16.3152 14.2411 16.0429 13.7751C15.8254 13.5571 15.8933 13.6291 15.7477 13.7321C15.6539 13.8401 15.6369 13.9141 15.6419 14.1291C15.6419 14.1371 15.8175 14.6281 15.9661 14.9721C16.0648 15.3251 16.1576 15.7281 16.0907 16.1091C15.8594 16.6131 15.3936 17.0651 14.9448 17.3101C14.7134 17.3851 14.5149 17.3581 14.4661 17.3061C14.3234 17.2101 14.3304 17.0331 14.3414 17.0301C14.7194 16.7651 15.1522 16.5521 15.4913 15.8391C15.5911 15.5671 15.621 15.4021 15.5223 14.9811C15.4834 14.8231 15.4335 14.6951 15.3258 14.5831C15.3866 14.5431 15.5611 14.6761 15.5881 14.5971C15.5482 14.3951 15.4115 14.1251 15.258 13.9871C15.1233 13.8641 14.9767 13.8501 14.853 13.9631C14.7134 14.0411 14.6835 14.3191 14.7503 14.5631C14.8241 14.7471 15.0246 14.7781 15.1682 15.1471C15.1682 15.1551 15.2201 15.4231 15.1462 15.5281C15.0874 15.7121 14.3244 16.3131 14.2825 16.3401C14.2616 16.3661 14.2706 16.3271 14.2676 16.2271C14.2626 16.1051 14.3164 15.8171 14.3015 15.8151C14.0531 15.9761 13.9704 16.4691 13.9255 16.6151C13.2971 17.0501 12.586 17.3741 12.1751 17.8161C11.9607 18.1511 13.6492 17.4311 13.8457 17.3441C13.8896 17.3761 13.8846 17.5271 14.0023 17.6621C14.1778 17.9001 14.5488 18.0471 14.9129 17.9561C15.5213 17.7351 15.8733 17.3191 16.2304 16.8581C16.2812 16.7831 16.361 16.7261 16.4348 16.7831C16.6802 17.3341 17.3893 17.7241 18.3039 17.7651C18.5163 17.5061 18.4136 17.3811 18.3278 17.3271C18.3278 17.3191 17.876 17.1471 17.8072 16.9751C17.7653 16.8191 17.867 16.6821 18.0705 16.5781C18.6579 16.5071 19.2354 16.4281 19.7949 16.2481C19.8009 16.0601 19.9096 15.7781 19.9844 15.6561C20.0562 15.5321 20.0951 15.5691 20.0842 15.5241ZM18.5413 14.3521C18.5692 14.3051 18.6619 14.3071 18.7487 14.3581C18.8355 14.4081 18.8843 14.4881 18.8554 14.5351C18.8275 14.5831 18.7337 14.5801 18.647 14.5291C18.5602 14.4791 18.5133 14.4001 18.5413 14.3521ZM17.7863 16.2521C17.5848 16.3211 17.3913 16.3751 17.3913 16.6671C17.4661 17.0731 17.2886 16.9341 17.1839 16.8781C17.0602 16.7891 16.7121 16.5741 16.6622 16.1101C16.6543 15.9991 16.741 15.9061 16.8797 15.9061C17.0881 15.9631 17.3963 15.9671 17.6636 15.9951C17.882 16.0091 17.9907 16.1811 17.7863 16.2521ZM10.8377 11.7471C11.0531 11.8511 11.46 11.8071 11.4421 11.4571C11.4421 11.4261 11.4341 11.3221 11.4311 11.2941C11.3872 11.1911 11.2675 11.2161 11.2396 11.3231C11.2306 11.3581 11.2546 11.4141 11.2236 11.4321C11.2057 11.4501 11.1369 11.4391 11.1399 11.3431C11.1399 11.3121 11.1169 11.2791 11.104 11.2601C11.09 11.2511 11.082 11.2481 11.0571 11.2481C11.0272 11.2491 11.0272 11.2571 11.0112 11.2831C11.0042 11.3081 10.9942 11.3341 10.9942 11.3631C10.9903 11.3971 10.9773 11.4091 10.9524 11.4151C10.9244 11.4151 10.9304 11.4181 10.9085 11.4031C10.8945 11.3881 10.8776 11.3821 10.8776 11.3571C10.8776 11.3311 10.8716 11.2891 10.8636 11.2711C10.8516 11.2551 10.8327 11.2481 10.8107 11.2421C10.693 11.2421 10.6851 11.3771 10.6921 11.4291C10.6811 11.4381 10.6771 11.6801 10.8377 11.7471Z" fill="white"/>
<path d="M17.4664 14.0268C17.4664 13.9958 17.4435 13.9638 17.4305 13.9438C17.4166 13.9348 17.4086 13.9318 17.3837 13.9318C17.3537 13.9328 17.3547 13.9408 17.3378 13.9668C17.3308 13.9928 17.3208 14.0178 17.3208 14.0468C17.3178 14.0818 17.3039 14.0938 17.2789 14.0988C17.251 14.0988 17.257 14.1018 17.2341 14.0878C17.2201 14.0728 17.2031 14.0668 17.2031 14.0418C17.2031 14.0158 17.1972 13.9728 17.1892 13.9558C17.1772 13.9398 17.1583 13.9328 17.1363 13.9278C17.0186 13.9278 17.0107 14.0628 17.0166 14.1138C17.0077 14.1238 17.0027 14.3648 17.1633 14.4328C17.3797 14.5358 17.8933 14.4758 17.7677 14.1428C17.7677 14.1118 17.7597 14.0078 17.7567 13.9788C17.7128 13.8758 17.5921 13.9018 17.5652 14.0078C17.5572 14.0428 17.5811 14.0988 17.5492 14.1168C17.5333 14.1348 17.4635 14.1238 17.4664 14.0268ZM20.8545 13.3198C21.0699 13.4238 21.4758 13.3798 21.4579 13.0308C21.4579 12.9998 21.4499 12.8958 21.4469 12.8668C21.403 12.7638 21.2833 12.7898 21.2564 12.8958C21.2474 12.9308 21.2714 12.9868 21.2395 13.0048C21.2215 13.0228 21.1527 13.0128 21.1557 12.9158C21.1557 12.8848 21.1327 12.8518 21.1198 12.8328C21.1058 12.8238 21.0978 12.8208 21.0719 12.8208C21.042 12.8228 21.043 12.8298 21.026 12.8558C21.019 12.8818 21.0091 12.9068 21.0091 12.9358C21.0051 12.9708 20.9921 12.9828 20.9672 12.9878C20.9392 12.9878 20.9452 12.9908 20.9223 12.9768C20.9083 12.9618 20.8924 12.9558 20.8924 12.9308C20.8924 12.9048 20.8864 12.8618 20.8784 12.8438C20.8654 12.8278 20.8475 12.8208 20.8246 12.8158C20.7069 12.8158 20.6989 12.9508 20.7059 13.0018C20.6989 13.0118 20.6939 13.2528 20.8545 13.3198ZM21.0001 11.9678C21.0769 12.1838 20.9412 12.3898 21.022 12.4198C21.0948 12.4538 21.1986 12.1968 21.2365 11.9598C21.2813 11.7678 21.1447 11.3748 20.9512 11.2938C20.8335 11.2658 20.666 11.3358 20.7198 11.4938C20.6929 11.5698 20.9572 11.8278 21.0001 11.9678ZM22.9898 17.0318C23.1404 17.0328 23.314 16.6868 23.3878 16.3438C23.4287 15.8718 23.3598 15.5848 23.3479 15.3068C23.3349 15.0298 23.0357 12.9148 22.9739 12.7048C22.9011 12.3078 23.2661 12.6518 23.2262 12.4208C23.0995 12.1298 22.7854 11.7068 22.6856 11.4538C22.6258 11.3458 22.6517 11.2498 22.5181 11.4258C22.3954 11.8308 22.3525 12.1608 22.3994 12.4128C22.7165 14.0728 23.0417 15.4528 22.9898 17.0318ZM26.7359 12.6918C26.7708 12.7998 26.683 13.1488 26.7558 13.1808C26.8227 13.2168 26.9164 12.9398 26.9513 12.6828C26.9703 12.5418 26.8675 12.0498 26.691 11.9618C26.5833 11.9318 26.4307 12.0068 26.4806 12.1788C26.4556 12.2618 26.697 12.5398 26.7359 12.6918ZM13.6516 16.3478C13.7164 16.3748 13.8052 16.1708 13.8391 15.9818C13.858 15.8778 13.7583 15.5168 13.5897 15.4518C13.486 15.4298 13.3444 15.4578 13.3883 15.6118C13.3833 15.6948 13.6176 15.7948 13.6316 15.9878C13.6655 16.0678 13.5817 16.3248 13.6516 16.3478ZM9.1076 11.7328C9.14051 11.8158 9.07468 12.0808 9.1435 12.1058C9.20634 12.1338 9.2951 11.9218 9.32801 11.7268C9.34696 11.6188 9.332 11.2528 9.08266 11.1778C8.97994 11.1548 8.83731 11.2118 8.88419 11.3428C8.86025 11.4048 9.07069 11.6168 9.1076 11.7328ZM13.9966 12.9058C13.8061 13.0098 13.7313 13.3178 13.851 13.4968C13.9617 13.6558 14.1373 13.5968 14.1612 13.5968C14.3487 13.6198 14.4594 13.2448 14.4594 13.2448C14.4594 13.2448 14.4654 13.1398 14.243 13.3388C14.1492 13.3568 14.1373 13.3218 14.1143 13.2678C14.0944 13.1708 14.0984 13.0728 14.1433 12.9758C14.1752 12.8828 14.1034 12.8418 13.9966 12.9058ZM15.4348 11.7528C15.5056 11.7008 15.5296 11.6668 15.5525 11.5788C15.5814 11.4328 15.3979 11.6478 15.375 11.4848C15.3341 11.3338 15.4518 11.2718 15.5635 11.1258C15.5675 11.0248 15.5655 10.9538 15.4288 11.0358C15.3331 11.1008 15.1416 11.2988 15.1356 11.5268C15.1296 11.6558 15.1057 11.6548 15.1905 11.7368C15.2513 11.8258 15.3122 11.8168 15.4348 11.7528ZM16.7304 11.8308C16.8541 11.4948 16.8541 11.3528 16.863 11.2098C16.8251 10.9928 16.6785 10.9998 16.5818 11.2408C16.5399 11.3318 16.491 11.8108 16.499 11.8108C16.4661 11.9538 16.6476 12.0148 16.7304 11.8308ZM24.8788 14.2138C24.8788 14.2138 23.8785 14.9268 23.8545 14.9518C23.7548 15.0398 23.8047 15.3518 23.8545 15.3158C23.9253 15.3438 24.9317 14.6588 24.9117 14.5788C24.9586 14.5808 24.9815 14.1778 24.8788 14.2138ZM24.7561 16.1478C24.823 16.1838 24.9995 15.9648 24.9925 15.6918C25.0125 15.5508 24.9416 15.0338 24.7661 14.9458C24.6584 14.9158 24.5148 15.0078 24.5646 15.1788C24.5397 15.2608 24.6883 15.5478 24.7272 15.6998C24.7621 15.8088 24.6833 16.1158 24.7561 16.1478ZM19.0911 17.6438C19.0911 17.6528 19.1759 17.7258 19.2757 17.6678C19.4851 17.5868 19.6168 17.5088 19.91 17.4438C19.9868 17.4428 19.9818 17.2358 19.8601 17.2288C19.7015 17.2368 19.5539 17.2448 19.3953 17.3708C19.2976 17.3928 19.2816 17.3338 19.2597 17.2798C19.2358 17.1468 19.3146 17.0548 19.2976 16.9558C19.3036 16.9618 19.2068 16.8728 19.1081 16.9228C19.1031 16.9228 18.8877 17.0688 18.8189 17.1708C18.776 17.2038 18.781 17.2318 18.7939 17.2868C18.8268 17.3628 18.8857 17.3398 18.9515 17.3038C19.0393 17.2918 19.0812 17.3498 19.0742 17.4548C19.0323 17.5878 19.0911 17.6368 19.0911 17.6438ZM25.6248 17.8098C25.5919 17.8668 25.57 17.9528 25.6717 17.9798C25.8592 18.0328 26.2911 17.7508 26.2911 17.7458C26.3609 17.6928 26.3379 17.5938 26.332 17.5938C26.2911 17.5468 26.1993 17.5738 26.1375 17.5668C26.1086 17.5668 26.0108 17.5518 26.0577 17.4658C26.0956 17.4128 26.1096 17.3798 26.1355 17.3148C26.1644 17.2498 26.1395 17.2068 26.0337 17.1718C25.927 17.1518 25.8841 17.1618 25.7655 17.1718C25.7016 17.1858 25.6797 17.2138 25.6677 17.2918C25.6727 17.4098 25.7435 17.4038 25.8173 17.4508C25.8602 17.5058 25.8881 17.5558 25.8143 17.6448C25.7445 17.7098 25.6956 17.7458 25.6248 17.8098ZM25.4333 22.9998H23.9373V22.4998C23.9373 22.2238 23.7139 21.9998 23.4386 21.9998C23.1634 21.9998 22.9399 22.2238 22.9399 22.4998V22.9998H10.9717C10.9717 22.9998 10.9717 23.9998 13.9637 23.9998H22.9399V24.4998C22.9399 24.7758 23.1634 24.9998 23.4386 24.9998C23.7139 24.9998 23.9373 24.7758 23.9373 24.4998V23.9998H24.9347V24.4998C24.9347 24.7758 25.1581 24.9998 25.4333 24.9998C25.7086 24.9998 25.932 24.7758 25.932 24.4998V23.4998C25.932 23.2238 25.7086 22.9998 25.4333 22.9998Z" fill="white"/>
</g>
<defs>
<clipPath id="clip0_294_2520">
<rect width="35.9049" height="36" rx="17.9524" fill="white"/>
</clipPath>
</defs>
</svg>
